<svg width="405" height="220" viewBox="0 0 405 220" fill="none" xmlns="http://www.w3.org/2000/svg">
<g opacity="0.25">
<path opacity="0.0344828" d="M225.77 -178.165C231.829 -175.749 234.555 -168.99 233.758 -158.232C232.966 -147.549 228.72 -133.259 221.401 -116.337C206.769 -82.5055 179.946 -38.35 144.389 8.09552C108.831 54.541 71.3107 94.4305 39.413 121.376C23.4576 134.855 8.95519 145.055 -3.15477 151.224C-15.3508 157.437 -24.73 159.369 -30.789 156.953C-36.8481 154.537 -39.5735 147.778 -38.7765 137.019C-37.9851 126.337 -33.7382 112.047 -26.4193 95.1244C-11.7875 61.2933 15.035 17.1378 50.5926 -29.3077C86.1503 -75.7532 123.671 -115.643 155.568 -142.589C171.524 -156.067 186.026 -166.267 198.136 -172.437C210.332 -178.65 219.711 -180.582 225.77 -178.165Z" stroke="#C0321C" stroke-width="2"/>
<path opacity="0.0689655" d="M245.141 -170.761C247.971 -169.354 249.875 -166.926 250.82 -163.466C251.767 -159.999 251.733 -155.548 250.734 -150.202C248.736 -139.513 242.914 -125.43 233.762 -108.911C215.463 -75.8859 183.955 -33.306 143.563 10.9851C103.171 55.2763 61.5864 92.8461 27.0243 117.784C9.73613 130.259 -5.74671 139.537 -18.4098 144.924C-24.7419 147.618 -30.315 149.315 -35.0218 149.971C-39.7192 150.626 -43.4821 150.235 -46.3122 148.828C-49.1422 147.421 -51.0469 144.993 -51.9917 141.533C-52.9385 138.066 -52.9044 133.615 -51.9053 128.27C-49.9072 117.58 -44.0858 103.497 -34.9329 86.9781C-16.6347 53.953 14.8739 11.3732 55.2657 -32.918C95.6575 -77.2092 137.242 -114.779 171.804 -139.717C189.093 -152.192 204.575 -161.47 217.238 -166.857C223.571 -169.551 229.144 -171.248 233.85 -171.904C238.548 -172.559 242.311 -172.168 245.141 -170.761Z" stroke="#C0321C" stroke-width="2"/>
<path opacity="0.103448" d="M263.411 -162.137C266.025 -160.544 267.628 -157.988 268.167 -154.445C268.707 -150.897 268.166 -146.423 266.571 -141.114C263.38 -130.499 256.028 -116.731 245.11 -100.741C223.284 -68.7743 187.328 -28.0949 142.409 13.7043C97.4903 55.5036 52.1573 90.467 15.1934 113.207C-3.2961 124.582 -19.642 132.867 -32.7622 137.43C-39.3237 139.712 -45.021 141.042 -49.7421 141.384C-54.4553 141.725 -58.1084 141.078 -60.722 139.485C-63.3355 137.892 -64.9381 135.336 -65.4772 131.793C-66.0172 128.244 -65.477 123.77 -63.8813 118.461C-60.6906 107.846 -53.338 94.0789 -42.4205 78.0889C-20.5941 46.1218 15.3614 5.44234 60.2803 -36.3569C105.199 -78.1561 150.532 -113.12 187.496 -135.86C205.986 -147.234 222.332 -155.52 235.452 -160.082C242.013 -162.364 247.71 -163.695 252.432 -164.037C257.145 -164.378 260.798 -163.73 263.411 -162.137Z" stroke="#C0321C" stroke-width="2"/>
<path opacity="0.137931" d="M280.444 -152.362C282.823 -150.599 284.115 -147.936 284.244 -144.336C284.373 -140.732 283.33 -136.27 281.149 -131.038C276.789 -120.578 267.961 -107.232 255.361 -91.8931C230.172 -61.2281 190.043 -22.7595 140.939 16.229C91.8342 55.2175 43.0977 87.3077 4.01321 107.675C-15.5369 117.863 -32.6216 125.092 -46.0992 128.795C-52.8401 130.647 -58.6184 131.6 -63.3184 131.625C-68.0125 131.651 -71.5274 130.752 -73.9066 128.989C-76.2858 127.226 -77.5775 124.563 -77.7065 120.963C-77.8357 117.359 -76.7929 112.897 -74.6122 107.665C-70.2522 97.2053 -61.4238 83.8587 -48.8243 68.52C-23.6353 37.855 16.494 -0.613589 65.5984 -39.6021C114.703 -78.5906 163.439 -110.681 202.524 -131.048C222.074 -141.236 239.159 -148.465 252.636 -152.168C259.377 -154.02 265.155 -154.973 269.855 -154.999C274.549 -155.024 278.064 -154.125 280.444 -152.362Z" stroke="#C0321C" stroke-width="2"/>
<path opacity="0.172414" d="M296.126 -141.514C298.256 -139.598 299.231 -136.847 298.948 -133.217C298.666 -129.585 297.128 -125.168 294.378 -120.054C288.881 -109.83 278.643 -97.006 264.458 -82.4359C236.097 -53.3072 192.1 -17.343 139.183 18.5375C86.2672 54.418 34.4981 83.3899 -6.40945 101.229C-26.8713 110.152 -44.5647 116.268 -58.2969 119.082C-65.1658 120.49 -70.9813 121.059 -75.6246 120.767C-80.2648 120.476 -83.615 119.336 -85.7449 117.419C-87.8749 115.503 -88.8493 112.752 -88.5667 109.122C-88.284 105.491 -86.7461 101.073 -83.9965 95.9589C-78.4995 85.7349 -68.2619 72.9111 -54.0761 58.341C-25.7158 29.2123 18.282 -6.75182 71.1982 -42.6324C124.114 -78.5129 175.883 -107.485 216.791 -125.324C237.253 -134.247 254.946 -140.363 268.678 -143.177C275.547 -144.585 281.363 -145.154 286.006 -144.862C290.646 -144.57 293.996 -143.43 296.126 -141.514Z" stroke="#C0321C" stroke-width="2"/>
<path opacity="0.206897" d="M310.359 -129.677C312.228 -127.624 312.881 -124.806 312.188 -121.173C311.496 -117.541 309.474 -113.203 306.176 -108.245C299.583 -98.3353 288.014 -86.1328 272.35 -72.4426C241.034 -45.0728 193.502 -11.8876 137.177 20.6114C80.852 53.1103 26.4444 78.7425 -15.9745 93.9169C-37.1921 101.507 -55.3594 106.462 -69.2411 108.366C-76.1855 109.318 -81.9937 109.497 -86.5454 108.891C-91.0969 108.284 -94.2578 106.913 -96.1266 104.861C-97.9954 102.808 -98.6482 99.9898 -97.9556 96.3575C-97.263 92.7252 -95.2412 88.3867 -91.9432 83.4293C-85.3504 73.5193 -73.7813 61.3168 -58.1172 47.6266C-26.8011 20.2568 20.7303 -12.9284 77.0555 -45.4273C133.381 -77.9262 187.788 -103.558 230.207 -118.733C251.425 -126.323 269.592 -131.278 283.474 -133.182C290.418 -134.134 296.226 -134.313 300.778 -133.707C305.33 -133.1 308.491 -131.729 310.359 -129.677Z" stroke="#C0321C" stroke-width="2"/>
<path opacity="0.241379" d="M323.044 -116.943C324.642 -114.771 324.971 -111.906 323.873 -108.298C322.775 -104.693 320.285 -100.467 316.463 -95.7041C308.825 -86.1845 296.012 -74.6969 278.989 -61.9912C244.955 -36.5894 194.252 -6.43638 134.947 22.4331C75.6414 51.3026 19.0096 73.3994 -24.5972 85.7925C-46.409 91.9914 -64.9113 95.7477 -78.8363 96.7252C-85.8028 97.2142 -91.5594 97.0026 -95.9847 96.0858C-100.413 95.1684 -103.363 93.5787 -104.961 91.4066C-106.56 89.2344 -106.889 86.3691 -105.79 82.7615C-104.693 79.1562 -102.202 74.9299 -98.3807 70.1674C-90.7421 60.6478 -77.9294 49.1602 -60.9062 36.4544C-26.8727 11.0527 23.8304 -19.1003 83.1358 -47.9698C142.441 -76.8393 199.073 -98.9361 242.68 -111.329C264.491 -117.528 282.994 -121.284 296.919 -122.262C303.885 -122.751 309.642 -122.539 314.067 -121.622C318.495 -120.705 321.445 -119.115 323.044 -116.943Z" stroke="#C0321C" stroke-width="2"/>
<path opacity="0.275862" d="M334.097 -103.413C335.419 -101.137 335.423 -98.2444 333.927 -94.6889C332.433 -91.1383 329.492 -87.0567 325.176 -82.5258C316.55 -73.4699 302.591 -62.7852 284.339 -51.1611C247.847 -27.9215 194.359 -1.03078 132.525 23.9891C70.6907 49.009 12.2662 67.4016 -32.1961 76.9184C-54.4356 81.6786 -73.1316 84.2071 -86.993 84.2504C-93.9281 84.2721 -99.5888 83.6709 -103.854 82.4506C-108.125 81.2287 -110.843 79.434 -112.165 77.1586C-113.487 74.8832 -113.491 71.9902 -111.995 68.4348C-110.501 64.8841 -107.56 60.8025 -103.244 56.2716C-94.6176 47.2157 -80.659 36.531 -62.4064 24.9069C-25.9147 1.66729 27.5737 -25.2234 89.4076 -50.2433C151.242 -75.2632 209.666 -93.6558 254.128 -103.173C276.368 -107.933 295.064 -110.461 308.925 -110.505C315.86 -110.526 321.521 -109.925 325.786 -108.705C330.057 -107.483 332.776 -105.688 334.097 -103.413Z" stroke="#C0321C" stroke-width="2"/>
<path opacity="0.310345" d="M343.446 -89.1946C344.486 -86.8312 344.166 -83.9298 342.283 -80.4543C340.404 -76.9854 337.035 -73.0799 332.258 -68.8157C322.709 -60.2931 307.711 -50.4935 288.368 -40.0397C249.697 -19.1398 193.831 4.28336 129.939 25.2629C66.0475 46.2424 6.27561 60.7903 -38.703 67.358C-61.2007 70.643 -79.9473 71.9238 -93.6387 71.0323C-100.489 70.5862 -106.01 69.5998 -110.083 68.0853C-114.163 66.5679 -116.633 64.5826 -117.673 62.2192C-118.713 59.8557 -118.393 56.9543 -116.51 53.4788C-114.631 50.0099 -111.262 46.1045 -106.485 41.8403C-96.9363 33.3176 -81.9385 23.518 -62.5955 13.0642C-23.9239 -7.83567 31.9424 -31.2588 95.8339 -52.2383C159.725 -73.2178 219.497 -87.7658 264.476 -94.3334C286.974 -97.6185 305.72 -98.8993 319.412 -98.0078C326.262 -97.5617 331.783 -96.5753 335.856 -95.0607C339.936 -93.5433 342.406 -91.5581 343.446 -89.1946Z" stroke="#C0321C" stroke-width="2"/>
<path opacity="0.344828" d="M351.046 -74.3987C351.801 -71.9614 351.159 -69.0706 348.903 -65.7024C346.653 -62.3419 342.882 -58.6428 337.68 -54.6782C327.282 -46.7545 311.36 -37.9151 291.074 -28.7114C250.517 -10.3109 192.699 9.46603 127.236 26.2452C61.7739 43.0244 1.11002 53.6166 -44.0418 57.1847C-66.626 58.9694 -85.2798 58.9925 -98.6959 57.1727C-105.409 56.2622 -110.748 54.8981 -114.596 53.1008C-118.453 51.2994 -120.66 49.139 -121.416 46.7016C-122.171 44.2642 -121.528 41.3734 -119.273 38.0053C-117.022 34.6447 -113.252 30.9457 -108.049 26.981C-97.6518 19.0574 -81.7294 10.218 -61.4436 1.01431C-20.8869 -17.3862 36.9315 -37.1632 102.394 -53.9424C167.856 -70.7216 228.52 -81.3138 273.672 -84.8818C296.256 -86.6665 314.91 -86.6896 328.326 -84.8699C335.039 -83.9593 340.378 -82.5952 344.227 -80.7979C348.084 -78.9965 350.291 -76.8361 351.046 -74.3987Z" stroke="#C0321C" stroke-width="2"/>
<path opacity="0.37931" d="M356.841 -59.1394C357.309 -56.6414 356.347 -53.7803 353.736 -50.5463C351.132 -47.3199 346.989 -43.8558 341.401 -40.2213C330.234 -32.9576 313.509 -25.1461 292.435 -17.2629C250.303 -1.50216 190.973 14.4777 124.438 26.9287C57.9037 39.3797 -3.18976 45.9353 -48.1703 46.4765C-70.6687 46.7472 -89.0869 45.5123 -102.125 42.7781C-108.648 41.41 -113.764 39.6786 -117.359 37.6123C-120.962 35.5411 -122.893 33.2213 -123.361 30.7234C-123.828 28.2254 -122.866 25.3643 -120.256 22.1302C-117.652 18.9039 -113.508 15.4397 -107.921 11.8053C-96.7539 4.54155 -80.0287 -3.26995 -58.9548 -11.1532C-16.8224 -26.9139 42.5074 -42.8938 109.042 -55.3448C175.577 -67.7958 236.67 -74.3513 281.651 -74.8926C304.149 -75.1633 322.567 -73.9283 335.605 -71.1941C342.129 -69.826 347.244 -68.0946 350.839 -66.0284C354.442 -63.9572 356.374 -61.6373 356.841 -59.1394Z" stroke="#C0321C" stroke-width="2"/>
<path opacity="0.413793" d="M360.804 -43.5391C360.981 -40.9936 359.705 -38.1813 356.76 -35.1071C353.822 -32.0398 349.338 -28.8373 343.408 -25.561C331.558 -19.013 314.158 -12.2892 292.457 -5.78647C249.07 7.21413 188.681 19.2752 121.581 27.3032C54.4811 35.3311 -6.57625 37.8001 -51.0422 35.3103C-73.2834 34.0649 -91.3248 31.5814 -103.884 27.9537C-110.168 26.1386 -115.021 24.0533 -118.334 21.734C-121.655 19.4094 -123.299 16.9464 -123.477 14.4009C-123.654 11.8555 -122.378 9.0431 -119.433 5.96889C-116.495 2.90159 -112.01 -0.300884 -106.081 -3.57719C-94.2308 -10.1252 -76.831 -16.849 -55.1297 -23.3517C-11.743 -36.3523 48.646 -48.4134 115.746 -56.4413C182.846 -64.4693 243.904 -66.9382 288.37 -64.4485C310.611 -63.2031 328.652 -60.7195 341.211 -57.0919C347.495 -55.2768 352.348 -53.1915 355.662 -50.8721C358.983 -48.5475 360.627 -46.0846 360.804 -43.5391Z" stroke="#C0321C" stroke-width="2"/>
<path opacity="0.448276" d="M362.925 -27.7178C362.81 -25.1382 361.225 -22.394 357.969 -19.5039C354.72 -16.6192 349.929 -13.703 343.704 -10.81C331.261 -5.02795 313.32 0.556844 291.157 5.62943C246.847 15.7709 185.859 23.8213 118.705 27.3651C51.5504 30.9089 -9.00545 29.2725 -52.6177 23.7708C-74.4319 21.019 -91.9585 17.3059 -103.943 12.8128C-109.939 10.5648 -114.492 8.14168 -117.498 5.58711C-120.511 3.02771 -121.858 0.438299 -121.743 -2.14131C-121.628 -4.72093 -120.043 -7.46509 -116.787 -10.3552C-113.538 -13.2399 -108.747 -16.1561 -102.522 -19.0491C-90.0794 -24.8312 -72.1382 -30.416 -49.9751 -35.4886C-5.66521 -45.63 55.3226 -53.6805 122.477 -57.2243C189.631 -60.7681 250.187 -59.1316 293.799 -53.63C315.614 -50.8781 333.14 -47.165 345.125 -42.6719C351.121 -40.4239 355.674 -38.0008 358.68 -35.4462C361.692 -32.8868 363.04 -30.2974 362.925 -27.7178Z" stroke="#C0321C" stroke-width="2"/>
<path opacity="0.482759" d="M363.193 -11.7988C362.784 -9.19943 360.898 -6.54312 357.358 -3.8595C353.823 -1.17945 348.762 1.42803 342.289 3.9156C329.35 8.88757 311.004 13.2909 288.549 16.8948C243.654 24.0999 182.532 28.0786 115.835 27.1114C49.1378 26.1442 -10.455 20.415 -52.8809 11.9436C-74.1018 7.70638 -90.9794 2.79231 -102.297 -2.5314C-107.959 -5.19496 -112.177 -7.93698 -114.854 -10.7071C-117.534 -13.4809 -118.576 -16.1797 -118.167 -18.779C-117.758 -21.3784 -115.872 -24.0347 -112.332 -26.7183C-108.797 -29.3984 -103.736 -32.0058 -97.2628 -34.4934C-84.3237 -39.4654 -65.9786 -43.8687 -43.5227 -47.4726C1.37223 -54.6777 62.494 -58.6564 129.191 -57.6892C195.888 -56.722 255.481 -50.9928 297.907 -42.5215C319.128 -38.2842 336.005 -33.3701 347.323 -28.0464C352.985 -25.3828 357.203 -22.6408 359.88 -19.8707C362.56 -17.0969 363.602 -14.3981 363.193 -11.7988Z" stroke="#C0321C" stroke-width="2"/>
<path opacity="0.517241" d="M361.632 4.09144C360.927 6.69465 358.752 9.24329 354.955 11.6999C351.161 14.1549 345.87 16.4338 339.198 18.497C325.862 22.6211 307.253 25.8095 284.676 27.9174C239.539 32.1315 178.749 32.0085 113.017 26.5378C47.2856 21.0672 -10.89 11.2892 -51.8059 -0.0868422C-72.2716 -5.77704 -88.3713 -11.8542 -98.9354 -17.9673C-104.221 -21.0257 -108.071 -24.0654 -110.398 -27.0298C-112.726 -29.9962 -113.456 -32.7866 -112.751 -35.3898C-112.046 -37.993 -109.871 -40.5417 -106.074 -42.9983C-102.279 -45.4533 -96.989 -47.7322 -90.317 -49.7954C-76.9809 -53.9194 -58.3723 -57.1079 -35.795 -59.2158C9.34246 -63.4299 70.1323 -63.3068 135.864 -57.8362C201.596 -52.3656 259.771 -42.5876 300.687 -31.2115C321.153 -25.5213 337.252 -19.4442 347.817 -13.331C353.102 -10.2727 356.952 -7.23298 359.279 -4.26856C361.607 -1.30215 362.337 1.48823 361.632 4.09144Z" stroke="#C0321C" stroke-width="2"/>
<path opacity="0.551724" d="M358.259 19.8297C357.259 22.4193 354.808 24.8405 350.783 27.0517C346.759 29.263 341.279 31.1962 334.46 32.8195C320.829 36.0644 302.1 38.0141 279.573 38.6101C234.538 39.8016 174.543 35.5781 110.278 25.6459C46.012 15.7138 -10.303 1.96192 -49.3971 -12.2316C-68.9517 -19.3312 -84.1505 -26.5244 -93.8806 -33.3798C-98.7481 -36.8092 -102.202 -40.123 -104.161 -43.2591C-106.12 -46.395 -106.531 -49.2585 -105.531 -51.8481C-104.531 -54.4377 -102.079 -56.8589 -98.0551 -59.0702C-94.0308 -61.2815 -88.5507 -63.2146 -81.7319 -64.8379C-68.1012 -68.0829 -49.3715 -70.0326 -26.845 -70.6285C18.1905 -71.82 78.1852 -67.5965 142.451 -57.6644C206.716 -47.7323 263.031 -33.9804 302.125 -19.7868C321.68 -12.6873 336.879 -5.494 346.609 1.36133C351.476 4.79073 354.93 8.10454 356.889 11.2406C358.849 14.3766 359.259 17.2401 358.259 19.8297Z" stroke="#C0321C" stroke-width="2"/>
<path opacity="0.586207" d="M353.123 35.2922C351.83 37.8492 349.119 40.1235 344.898 42.0731C340.674 44.0241 335.047 45.5968 328.133 46.7681C314.313 49.1097 295.605 49.8063 273.301 48.8861C228.711 47.0464 169.969 38.7552 107.659 24.4376C45.3488 10.1199 -8.67659 -7.50061 -45.651 -24.4029C-64.1454 -32.8573 -78.3274 -41.1113 -87.1495 -48.6557C-91.5624 -52.4295 -94.5936 -55.9919 -96.1705 -59.2758C-97.7464 -62.5574 -97.8327 -65.4745 -96.5399 -68.0315C-95.247 -70.5885 -92.5358 -72.8628 -88.315 -74.8124C-84.0913 -76.7634 -78.4638 -78.3362 -71.5506 -79.5075C-57.7299 -81.8491 -39.0225 -82.5457 -16.7186 -81.6255C27.8716 -79.7858 86.6139 -71.4945 148.924 -57.1769C211.234 -42.8593 265.259 -25.2387 302.234 -8.33646C320.728 0.117983 334.91 8.37195 343.732 15.9164C348.145 19.6902 351.176 23.2526 352.753 26.5364C354.329 29.818 354.416 32.7352 353.123 35.2922Z" stroke="#C0321C" stroke-width="2"/>
<path opacity="0.62069" d="M346.268 50.358C344.688 52.8622 341.735 54.9708 337.35 56.6446C332.959 58.3206 327.227 59.5213 320.272 60.2321C306.368 61.6531 287.825 61.0919 265.914 58.6629C222.109 53.8067 165.067 41.5115 105.187 22.9179C45.3065 4.3242 -6.01775 -17.0302 -40.5909 -36.5116C-57.8844 -46.2562 -70.9416 -55.5072 -78.7889 -63.6826C-82.7138 -67.7715 -85.2997 -71.5551 -86.4825 -74.9618C-87.6638 -78.3643 -87.4227 -81.3147 -85.8421 -83.8189C-84.2614 -86.3231 -81.3092 -88.4316 -76.9236 -90.1055C-72.5326 -91.7815 -66.8005 -92.9822 -59.846 -93.6929C-45.9413 -95.1139 -27.399 -94.5528 -5.48779 -92.1238C38.317 -87.2676 95.3596 -74.9724 155.24 -56.3787C215.12 -37.7851 266.444 -16.4307 301.017 3.05073C318.311 12.7953 331.368 22.0464 339.215 30.2217C343.14 34.3107 345.726 38.0942 346.909 41.501C348.09 44.9035 347.849 47.8539 346.268 50.358Z" stroke="#C0321C" stroke-width="2"/>
<path opacity="0.655172" d="M337.773 64.9106C335.912 67.3409 332.74 69.2658 328.223 70.6519C323.697 72.0403 317.905 72.8601 310.962 73.1053C297.08 73.5956 278.844 71.7818 257.492 67.8628C214.807 60.028 159.898 43.8232 102.904 21.0956C45.9101 -1.6321 -2.32233 -26.557 -34.2312 -48.4683C-50.1921 -59.4284 -62.0254 -69.6053 -68.8388 -78.3485C-72.2462 -82.7209 -74.3676 -86.6967 -75.1474 -90.2007C-75.9259 -93.6987 -75.356 -96.6611 -73.4954 -99.0915C-71.6348 -101.522 -68.4631 -103.447 -63.9454 -104.833C-59.4201 -106.221 -53.6273 -107.041 -46.6847 -107.286C-32.8023 -107.777 -14.5665 -105.963 6.7849 -102.044C49.4705 -94.2089 104.379 -78.0041 161.373 -55.2764C218.367 -32.5488 266.6 -7.62394 298.509 14.2874C314.469 25.2475 326.303 35.4244 333.116 44.1676C336.524 48.5401 338.645 52.5158 339.425 56.0198C340.203 59.5178 339.633 62.4802 337.773 64.9106Z" stroke="#C0321C" stroke-width="2"/>
<path opacity="0.689655" d="M327.711 78.8356C325.582 81.1709 322.214 82.8954 317.598 83.9836C312.973 85.074 307.163 85.507 300.285 85.2853C286.531 84.8421 268.741 81.7901 248.112 76.4115C206.871 65.6586 154.514 45.6684 100.84 18.9804C47.1653 -7.70762 2.39165 -36.0124 -26.6105 -60.1859C-41.1174 -72.2776 -51.6372 -83.302 -57.3656 -92.5458C-60.23 -97.1681 -61.8714 -101.306 -62.2424 -104.881C-62.6127 -108.448 -61.7148 -111.401 -59.5852 -113.736C-57.4555 -116.071 -54.0883 -117.796 -49.472 -118.884C-44.8465 -119.974 -39.0369 -120.407 -32.1592 -120.186C-18.4051 -119.742 -0.614728 -116.69 20.0143 -111.312C61.2556 -100.559 113.612 -80.5688 167.286 -53.8807C220.961 -27.1927 265.735 1.11205 294.737 25.2856C309.244 37.3773 319.763 48.4017 325.492 57.6455C328.356 62.2678 329.998 66.4055 330.369 69.9803C330.739 73.548 329.841 76.5003 327.711 78.8356Z" stroke="#C0321C" stroke-width="2"/>
<path opacity="0.724138" d="M316.182 92.0223C311.407 96.466 301.963 98.0562 288.346 96.6739C274.825 95.3012 257.615 91.0353 237.866 84.2385C198.382 70.6504 148.977 47.028 99.0302 16.5833C49.0837 -13.8613 8.10935 -45.3296 -17.7659 -71.5804C-30.7088 -84.7111 -39.8357 -96.4984 -44.4364 -106.172C-49.0699 -115.914 -48.9731 -123.202 -44.1977 -127.645C-39.4224 -132.089 -29.9792 -133.679 -16.3618 -132.297C-2.84054 -130.924 14.369 -126.658 34.1186 -119.861C73.6016 -106.273 123.007 -82.6509 172.954 -52.2062C222.9 -21.7616 263.875 9.70671 289.75 35.9575C302.693 49.0882 311.82 60.8755 316.421 70.5491C321.054 80.2914 320.957 87.5786 316.182 92.0223Z" stroke="#C0321C" stroke-width="2"/>
<path opacity="0.758621" d="M303.276 104.372C298.028 108.539 288.505 109.489 275.24 107.185C262.054 104.894 245.556 99.4477 226.836 91.285C189.411 74.9662 143.332 47.8922 97.4929 13.9232C51.6542 -20.0457 14.7904 -54.4372 -7.76188 -82.5645C-19.0426 -96.6339 -26.7081 -109.094 -30.1473 -119.123C-33.6071 -129.213 -32.6967 -136.546 -27.4488 -140.713C-22.2009 -144.88 -12.6777 -145.831 0.587282 -143.526C13.7731 -141.236 30.2713 -135.789 48.9913 -127.626C86.4159 -111.307 132.496 -84.2333 178.334 -50.2643C224.173 -16.2954 261.037 18.0961 283.589 46.2234C294.87 60.2928 302.535 72.7527 305.975 82.782C309.434 92.8716 308.524 100.205 303.276 104.372Z" stroke="#C0321C" stroke-width="2"/>
<path opacity="0.793103" d="M289.116 115.784C283.434 119.637 273.907 119.939 261.093 116.733C248.342 113.542 232.68 106.957 215.132 97.4909C180.05 78.5666 137.646 48.2478 96.2635 11.0137C54.8809 -26.2203 22.4074 -63.2725 3.34856 -93.0617C-6.18468 -107.962 -12.3315 -120.999 -14.5841 -131.308C-16.848 -141.669 -15.1259 -148.994 -9.44403 -152.846C-3.76216 -156.699 5.76477 -157.002 18.5796 -153.795C31.3302 -150.605 46.9922 -144.02 64.5403 -134.554C99.6224 -115.629 142.026 -85.3104 183.409 -48.0763C224.791 -10.8423 257.265 26.2099 276.324 55.9991C285.857 70.8996 292.004 83.9368 294.256 94.2456C296.52 104.606 294.798 111.931 289.116 115.784Z" stroke="#C0321C" stroke-width="2"/>
<path opacity="0.827586" d="M273.832 126.172C267.759 129.676 258.305 129.327 246.034 125.244C233.815 121.179 219.108 113.506 202.865 102.809C170.391 81.424 131.985 48.0917 95.3728 7.87635C58.7607 -32.339 30.9235 -71.7694 15.5019 -102.993C7.78802 -118.611 3.20554 -132.126 2.15556 -142.636C1.10115 -153.19 3.62694 -160.452 9.69932 -163.955C15.7717 -167.459 25.2257 -167.11 37.4964 -163.028C49.7157 -158.962 64.4231 -151.289 80.6663 -140.592C113.14 -119.207 151.546 -85.8749 188.158 -45.6596C224.77 -5.44416 252.607 33.9862 268.029 65.21C275.743 80.8281 280.325 94.3433 281.375 104.853C282.43 115.407 279.904 122.668 273.832 126.172Z" stroke="#C0321C" stroke-width="2"/>
<path opacity="0.862069" d="M257.544 135.455C251.129 138.578 241.824 137.58 230.187 132.654C218.591 127.745 204.949 119.043 190.134 107.197C160.515 83.5144 126.397 47.4227 94.8335 4.5323C63.2695 -38.3581 40.2793 -79.8663 28.6109 -112.287C22.7744 -128.504 19.7899 -142.394 19.9496 -153.026C20.1098 -163.695 23.4246 -170.836 29.8397 -173.959C36.2549 -177.082 45.5596 -176.083 57.1967 -171.157C68.7927 -166.248 82.4347 -157.546 97.2501 -145.7C126.869 -122.018 160.986 -85.9261 192.55 -43.0357C224.114 -0.145276 247.105 41.3629 258.773 73.7837C264.61 90.0005 267.594 103.891 267.434 114.522C267.274 125.191 263.959 132.333 257.544 135.455Z" stroke="#C0321C" stroke-width="2"/>
<path opacity="0.896552" d="M240.394 143.562C233.687 146.276 224.607 144.636 213.688 138.904C202.802 133.19 190.328 123.524 177.053 110.62C150.512 84.8201 120.942 46.2437 94.6654 1.00468C68.3889 -44.2344 50.4193 -87.5046 42.5915 -120.876C38.6761 -137.568 37.3114 -151.729 38.6786 -162.401C40.0501 -173.106 44.1326 -180.072 50.8389 -182.785C57.5451 -185.499 66.6255 -183.859 77.5443 -178.127C88.4299 -172.413 100.904 -162.747 114.179 -149.843C140.72 -124.043 170.29 -85.4668 196.567 -40.2278C222.843 5.0113 240.813 48.2816 248.641 81.653C252.556 98.3451 253.921 112.505 252.554 123.178C251.182 133.883 247.1 140.848 240.394 143.562Z" stroke="#C0321C" stroke-width="2"/>
<path opacity="0.931035" d="M222.524 150.428C215.581 152.707 206.798 150.44 196.678 143.946C186.584 137.469 175.372 126.914 163.736 113.049C140.474 85.3281 115.675 44.5602 94.8847 -2.68361C74.0947 -49.9274 61.2813 -94.631 57.3524 -128.7C55.3873 -145.741 55.6519 -160.064 58.2158 -170.697C60.7867 -181.359 65.6089 -188.094 72.5514 -190.373C79.4939 -192.653 88.2771 -190.386 98.3979 -183.892C108.491 -177.414 119.704 -166.86 131.339 -152.994C154.601 -125.274 179.401 -84.5058 200.191 -37.262C220.981 9.98177 233.794 54.6854 237.723 88.7543C239.688 105.795 239.424 120.118 236.86 130.752C234.289 141.414 229.466 148.148 222.524 150.428Z" stroke="#C0321C" stroke-width="2"/>
<path opacity="0.965517" d="M204.09 156.002C196.969 157.827 188.554 154.952 179.305 147.744C170.079 140.553 160.212 129.189 150.305 114.468C130.497 85.0366 110.656 42.3865 95.5099 -6.50312C80.3638 -55.3927 72.803 -101.19 72.8022 -135.699C72.8019 -152.959 74.6932 -167.337 78.4342 -177.851C82.1844 -188.392 87.7115 -194.841 94.8328 -196.666C101.954 -198.491 110.37 -195.616 119.619 -188.408C128.845 -181.217 138.711 -169.853 148.619 -155.132C168.427 -125.7 188.267 -83.0503 203.413 -34.1607C218.56 14.7289 226.12 60.5265 226.121 95.0349C226.121 112.295 224.23 126.673 220.489 137.188C216.739 147.728 211.212 154.177 204.09 156.002Z" stroke="#C0321C" stroke-width="2"/>
<path d="M185.246 160.238C178.005 161.593 170.024 158.134 161.715 150.265C153.426 142.416 144.979 130.327 136.874 114.862C120.67 83.9427 105.938 39.7338 96.5506 -10.4304C87.1631 -60.5947 84.912 -107.139 88.8389 -141.826C90.8031 -159.176 94.3067 -173.5 99.1963 -183.816C104.098 -194.157 110.288 -200.268 117.529 -201.623C124.77 -202.978 132.751 -199.519 141.06 -191.65C149.349 -183.8 157.796 -171.712 165.901 -156.247C182.105 -125.327 196.837 -81.1186 206.224 -30.9543C215.612 19.21 217.863 65.7545 213.936 100.441C211.972 117.791 208.468 132.115 203.579 142.431C198.677 152.772 192.487 158.883 185.246 160.238Z" stroke="#C0321C" stroke-width="2"/>
</g>
</svg>
