<svg width="243" height="423" viewBox="0 0 243 423" fill="none" xmlns="http://www.w3.org/2000/svg">
<g opacity="0.4">
<path opacity="0.0344828" d="M84.4327 331.671C81.0915 334.744 77.8424 334.239 74.8488 330.306C71.8687 326.392 69.2134 319.167 67.0231 309.187C62.644 289.234 60.1456 258.374 60.5752 221.332C61.0048 184.29 64.2806 148.118 69.2219 119.592C71.6934 105.324 74.5755 93.006 77.7116 83.4653C80.8619 73.8817 84.1929 67.3236 87.5341 64.2503C90.8754 61.1769 94.1245 61.6825 97.118 65.6149C100.098 69.5297 102.753 76.7548 104.944 86.7344C109.323 106.687 111.821 137.548 111.392 174.59C110.962 211.632 107.686 247.803 102.745 276.329C100.273 290.597 97.3914 302.915 94.2552 312.456C91.105 322.04 87.774 328.598 84.4327 331.671Z" stroke="#C0321C" stroke-width="1.09991"/>
<path opacity="0.0689655" d="M74.069 341.415C72.4291 342.753 70.867 343.165 69.3933 342.645C67.9171 342.123 66.5492 340.671 65.3088 338.335C62.8281 333.661 60.8923 325.516 59.5901 314.519C56.9866 292.531 56.9272 259.246 60.0364 219.873C63.1456 180.5 68.8321 142.529 75.5056 112.976C78.8435 98.1948 82.4207 85.5542 86.0318 75.9132C87.8374 71.0924 89.6388 67.0561 91.4061 63.89C93.1705 60.7292 94.878 58.4752 96.518 57.1379C98.158 55.8005 99.7201 55.3883 101.194 55.9086C102.67 56.4298 104.038 57.8817 105.278 60.2186C107.759 64.892 109.695 73.0371 110.997 84.0345C113.6 106.022 113.66 139.308 110.551 178.681C107.441 218.054 101.755 256.025 95.0814 285.577C91.7435 300.358 88.1663 312.999 84.5553 322.64C82.7496 327.461 80.9483 331.497 79.181 334.663C77.4166 337.824 75.709 340.078 74.069 341.415Z" stroke="#C0321C" stroke-width="1.09991"/>
<path opacity="0.103448" d="M63.787 350.076C62.1952 351.205 60.7258 351.389 59.3955 350.587C58.0641 349.784 56.9 348.007 55.9191 345.307C53.9579 339.91 52.7577 330.906 52.3542 318.975C51.5474 295.12 53.9283 259.663 59.6942 218.26C65.46 176.856 73.5147 137.375 81.8704 107.022C86.0496 91.841 90.2954 78.9749 94.3545 69.3074C96.3847 64.4722 98.3531 60.4736 100.224 57.3992C102.094 54.3272 103.829 52.2392 105.421 51.1103C107.012 49.9814 108.482 49.7971 109.812 50.5995C111.144 51.4024 112.308 53.1794 113.289 55.8791C115.25 61.2768 116.45 70.2805 116.853 82.2118C117.66 106.067 115.279 141.523 109.513 182.927C103.748 224.33 95.6929 263.811 87.3373 294.164C83.158 309.345 78.9122 322.212 74.8531 331.879C72.8229 336.714 70.8545 340.713 68.9831 343.787C67.1132 346.859 65.3788 348.947 63.787 350.076Z" stroke="#C0321C" stroke-width="1.09991"/>
<path opacity="0.137931" d="M53.6599 357.596C52.1339 358.511 50.7661 358.473 49.5878 357.393C48.4108 356.313 47.4598 354.224 46.7466 351.181C45.3209 345.099 44.8663 335.306 45.3651 322.531C46.3623 296.991 51.1662 259.634 59.5452 216.515C67.9241 173.397 78.2864 132.708 88.261 101.787C93.2499 86.3215 98.1326 73.3286 102.609 63.709C104.849 58.8966 106.97 54.9657 108.932 52.005C110.896 49.0411 112.641 47.1375 114.167 46.2229C115.693 45.3082 117.061 45.3461 118.239 46.4264C119.416 47.5056 120.367 49.5953 121.081 52.6378C122.506 58.7196 122.961 68.5135 122.462 81.2877C121.465 106.828 116.661 144.185 108.282 187.304C99.903 230.422 89.5408 271.111 79.5661 302.032C74.5772 317.498 69.6946 330.49 65.2178 340.11C62.9782 344.922 60.8572 348.853 58.8951 351.814C56.931 354.778 55.1859 356.681 53.6599 357.596Z" stroke="#C0321C" stroke-width="1.09991"/>
<path opacity="0.172414" d="M43.7622 363.927C42.3191 364.626 41.0598 364.374 40.0416 363.02C39.0277 361.672 38.2975 359.285 37.8581 355.922C36.9798 349.202 37.2751 338.693 38.6727 325.173C41.467 298.142 48.6579 259.169 59.5865 214.665C70.5152 170.16 83.1065 128.574 94.6245 97.3206C100.385 81.6895 105.868 68.6695 110.729 59.1719C113.161 54.4198 115.419 50.5861 117.457 47.7607C119.505 44.9235 121.244 43.2209 122.687 42.5225C124.13 41.8241 125.389 42.0756 126.407 43.4293C127.421 44.7773 128.151 47.1649 128.591 50.5273C129.469 57.2475 129.174 67.757 127.776 81.2766C124.982 108.308 117.791 147.28 106.862 191.785C95.9338 236.29 83.3425 277.876 71.8245 309.129C66.0638 324.76 60.5811 337.78 55.7204 347.278C53.2883 352.03 51.0304 355.864 48.9917 358.689C46.9444 361.526 45.2053 363.229 43.7622 363.927Z" stroke="#C0321C" stroke-width="1.09991"/>
<path opacity="0.206897" d="M34.1622 369.033C32.8179 369.518 31.6718 369.063 30.8214 367.441C29.9784 365.834 29.4752 363.166 29.3134 359.509C28.9901 352.201 30.0337 341.056 32.3198 326.894C36.8905 298.579 46.4139 258.288 59.8093 212.736C73.2046 167.184 87.9293 125.018 100.903 93.672C107.392 77.9948 113.433 65.0478 118.641 55.7456C121.247 51.0907 123.625 47.3835 125.725 44.7144C127.844 42.022 129.562 40.5346 130.906 40.0499C132.25 39.5651 133.396 40.0199 134.247 41.6416C135.09 43.2492 135.593 45.9174 135.755 49.5743C136.078 56.882 135.034 68.0269 132.748 82.1886C128.178 110.504 118.654 150.795 105.259 196.347C91.8635 241.899 77.1388 284.065 64.1649 315.411C57.6763 331.088 51.6352 344.035 46.4275 353.337C43.8214 357.992 41.4434 361.699 39.3428 364.369C37.2238 367.061 35.5065 368.548 34.1622 369.033Z" stroke="#C0321C" stroke-width="1.09991"/>
<path opacity="0.241379" d="M24.9306 372.883C23.6979 373.162 22.6679 372.514 21.9928 370.631C21.3275 368.775 21.0557 365.846 21.1733 361.923C21.4082 354.083 23.1926 342.388 26.3498 327.693C32.6626 298.308 44.4462 257.007 60.2064 210.755C75.9666 164.503 92.7128 122.079 107.044 90.8793C114.211 75.2759 120.765 62.5013 126.28 53.4666C129.04 48.9451 131.52 45.3932 133.667 42.9006C135.845 40.3716 137.526 39.1108 138.758 38.8317C139.991 38.5527 141.021 39.2001 141.696 41.0832C142.361 42.9391 142.633 45.8682 142.516 49.7915C142.281 57.6311 140.496 69.3262 137.339 84.0219C131.026 113.406 119.243 154.708 103.483 200.959C87.7223 247.211 70.9761 289.636 56.6452 320.835C49.4779 336.439 42.9243 349.213 37.4094 358.248C34.6494 362.769 32.1692 366.321 30.0221 368.814C27.8436 371.343 26.1634 372.604 24.9306 372.883Z" stroke="#C0321C" stroke-width="1.09991"/>
<path opacity="0.275862" d="M16.1318 375.458C15.58 375.5 15.0752 375.323 14.6398 374.851C14.2021 374.376 13.8548 373.623 13.6137 372.578C13.1315 370.487 13.0939 367.319 13.4902 363.159C14.2821 354.848 16.7941 342.692 20.7985 327.575C28.8056 297.346 42.7598 255.348 60.7649 208.749C78.77 162.151 97.4103 119.791 112.989 88.9765C120.78 73.566 127.796 61.0621 133.576 52.3649C136.469 48.0123 139.033 44.6433 141.21 42.3468C142.299 41.1984 143.267 40.3438 144.11 39.7701C144.948 39.1994 145.625 38.9306 146.177 38.8879C146.729 38.8452 147.234 39.0227 147.669 39.4948C148.107 39.9696 148.454 40.7224 148.695 41.7679C149.178 43.8588 149.215 47.0267 148.819 51.1863C148.027 59.4977 145.515 71.6534 141.511 86.7711C133.504 117 119.549 158.997 101.544 205.596C83.5391 252.195 64.8988 294.555 49.32 325.369C41.5288 340.78 34.5126 353.284 28.7327 361.981C25.84 366.333 23.2766 369.702 21.0992 371.999C20.0104 373.147 19.0421 374.002 18.1992 374.576C17.3609 375.146 16.6837 375.415 16.1318 375.458Z" stroke="#C0321C" stroke-width="1.09991"/>
<path opacity="0.310345" d="M7.82857 376.75C7.34019 376.705 6.8931 376.444 6.52406 375.869C6.15362 375.291 5.88612 374.431 5.73868 373.276C5.44402 370.966 5.64125 367.583 6.31351 363.219C7.65674 354.5 10.8772 341.977 15.6984 326.553C25.3388 295.711 41.3574 253.338 61.4704 206.747C81.5833 160.155 101.976 118.184 118.684 87.9902C127.039 72.8904 134.464 60.7533 140.465 52.4613C143.468 48.3113 146.095 45.152 148.285 43.07C149.381 42.0284 150.343 41.2812 151.164 40.8131C151.983 40.3467 152.613 40.1848 153.101 40.2296C153.59 40.2744 154.037 40.5352 154.406 41.1105C154.776 41.6881 155.044 42.548 155.191 43.7038C155.486 46.0138 155.289 49.3961 154.616 53.76C153.273 62.4794 150.053 75.0023 145.231 90.4265C135.591 121.269 119.572 163.642 99.4594 210.233C79.3464 256.824 58.9541 298.796 42.2461 328.989C33.8904 344.089 26.4653 356.226 20.4649 364.518C17.4618 368.668 14.8351 371.827 12.6444 373.909C11.5484 374.951 10.5871 375.698 9.76528 376.166C8.94654 376.633 8.31696 376.795 7.82857 376.75Z" stroke="#C0321C" stroke-width="1.09991"/>
<path opacity="0.344828" d="M0.0790316 376.757C-0.351914 376.632 -0.743091 376.291 -1.04358 375.616C-1.34461 374.94 -1.53011 373.979 -1.58238 372.722C-1.68681 370.211 -1.25598 366.641 -0.312855 362.106C1.57161 353.046 5.47603 340.252 11.0773 324.639C22.2776 293.419 40.2385 250.994 62.3061 204.766C84.3737 158.537 106.363 117.274 124.072 87.9319C132.929 73.2581 140.706 61.5813 146.88 53.7589C149.971 49.844 152.64 46.9197 154.826 45.0694C155.921 44.1433 156.868 43.5092 157.663 43.1492C158.458 42.79 159.041 42.7296 159.472 42.8539C159.902 42.9782 160.294 43.3197 160.594 43.9948C160.895 44.6711 161.081 45.6319 161.133 46.8888C161.237 49.4 160.807 52.9701 159.863 57.5044C157.979 66.5645 154.075 79.3585 148.473 94.9715C137.273 126.191 119.312 168.617 97.2445 214.845C75.1769 261.073 53.1879 302.337 35.4783 331.679C26.6217 346.353 18.8447 358.029 12.6702 365.852C9.57996 369.767 6.91056 372.691 4.72416 374.541C3.62983 375.467 2.68294 376.101 1.88722 376.461C1.09299 376.821 0.509977 376.881 0.0790316 376.757Z" stroke="#C0321C" stroke-width="1.09991"/>
<path opacity="0.37931" d="M-7.06349 375.491C-7.44767 375.29 -7.78442 374.866 -8.01389 374.096C-8.24359 373.325 -8.34546 372.271 -8.30197 370.923C-8.21509 368.231 -7.55403 364.502 -6.34726 359.832C-3.93601 350.502 0.622348 337.535 6.96093 321.852C19.6356 290.493 39.4018 248.339 63.2559 202.826C87.11 157.313 110.528 117.073 129.104 88.8068C138.394 74.6709 146.463 63.5444 152.764 56.2525C155.917 52.6031 158.608 49.9373 160.772 48.3341C161.856 47.5316 162.781 47.0154 163.545 46.7659C164.308 46.5167 164.849 46.5521 165.233 46.7535C165.617 46.9548 165.954 47.3793 166.184 48.149C166.413 48.9194 166.515 49.9738 166.472 51.3213C166.385 54.0133 165.724 57.7429 164.517 62.4126C162.106 71.7431 157.547 84.7097 151.209 100.392C138.534 131.751 118.768 173.906 94.9139 219.419C71.0598 264.932 47.6418 305.172 29.0659 333.438C19.7761 347.574 11.7069 358.7 5.40607 365.992C2.25267 369.642 -0.438152 372.307 -2.60247 373.911C-3.68587 374.713 -4.61089 375.229 -5.37513 375.479C-6.13864 375.728 -6.67931 375.693 -7.06349 375.491Z" stroke="#C0321C" stroke-width="1.09991"/>
<path opacity="0.413793" d="M-13.5489 372.971C-13.8963 372.687 -14.1784 372.174 -14.3349 371.316C-14.4916 370.457 -14.5089 369.317 -14.37 367.891C-14.0926 365.04 -13.2066 361.181 -11.7456 356.412C-8.82628 346.883 -3.64913 333.844 3.37838 318.211C17.4306 286.953 38.8514 245.391 64.3101 200.941C89.7689 156.49 114.437 117.58 133.738 90.6051C143.39 77.1152 151.689 66.6246 158.067 59.9198C161.259 56.5642 163.95 54.1785 166.074 52.8355C167.138 52.1633 168.033 51.7692 168.761 51.6319C169.487 51.4949 169.99 51.6223 170.338 51.9059C170.685 52.1895 170.967 52.7033 171.124 53.5609C171.281 54.42 171.298 55.5595 171.159 56.9864C170.882 59.8371 169.996 63.6962 168.535 68.465C165.615 77.9935 160.438 91.0329 153.411 106.665C139.358 137.924 117.938 179.486 92.4789 223.936C67.0201 268.387 42.3517 307.297 23.0514 334.272C13.3994 347.762 5.10001 358.252 -1.27817 364.957C-4.47028 368.313 -7.16101 370.698 -9.28544 372.041C-10.3488 372.714 -11.2444 373.108 -11.9719 373.245C-12.698 373.382 -13.2014 373.255 -13.5489 372.971Z" stroke="#C0321C" stroke-width="1.09991"/>
<path opacity="0.448276" d="M-19.3317 369.227C-19.6465 368.851 -19.8715 368.241 -19.9539 367.302C-20.0365 366.36 -19.9691 365.145 -19.7361 363.65C-19.2705 360.664 -18.1671 356.707 -16.4632 351.876C-13.0586 342.223 -7.30265 329.211 0.360101 313.748C15.6824 282.829 38.5942 242.177 65.4636 199.127C92.3329 156.077 118.063 118.794 137.941 93.3177C147.881 80.5766 156.347 70.8027 162.753 64.7368C165.959 61.701 168.628 59.6142 170.695 58.5422C171.73 58.0057 172.589 57.7364 173.275 57.7124C173.958 57.6885 174.427 57.9078 174.741 58.2839C175.056 58.66 175.281 59.2699 175.364 60.2086C175.446 61.1508 175.379 62.3664 175.146 63.8604C174.68 66.8465 173.577 70.8042 171.873 75.6351C168.468 85.2876 162.712 98.2995 155.05 113.763C139.727 144.682 116.816 185.334 89.9462 228.384C63.0768 271.433 37.3463 308.717 17.4692 334.193C7.52856 346.934 -0.937084 356.708 -7.3431 362.774C-10.5492 365.81 -13.2183 367.897 -15.2856 368.969C-16.3199 369.505 -17.1793 369.774 -17.865 369.798C-18.5481 369.822 -19.017 369.603 -19.3317 369.227Z" stroke="#C0321C" stroke-width="1.09991"/>
<path opacity="0.482759" d="M-24.3737 364.295C-24.6527 363.817 -24.8169 363.107 -24.8246 362.093C-24.8324 361.073 -24.6807 359.791 -24.3558 358.242C-23.7062 355.145 -22.3944 351.12 -20.4609 346.264C-16.5977 336.562 -10.3074 323.678 -2.068 308.502C14.4072 278.158 38.6351 238.727 66.7102 197.406C94.7854 156.085 121.382 120.713 141.684 96.9284C151.837 85.0335 160.404 76.0512 166.788 70.6708C169.983 67.9781 172.61 66.2065 174.603 65.4133C175.6 65.0167 176.417 64.8739 177.056 64.9637C177.692 65.0531 178.126 65.3672 178.405 65.8453C178.683 66.3234 178.848 67.0333 178.855 68.0474C178.863 69.067 178.711 70.3495 178.387 71.8983C177.737 74.9955 176.425 79.0205 174.492 83.8759C170.629 93.5777 164.338 106.462 156.099 121.638C139.624 151.982 115.396 191.413 87.3206 232.734C59.2454 274.055 32.6491 309.427 12.3471 333.212C2.19376 345.107 -6.373 354.089 -12.7572 359.469C-15.9523 362.162 -18.5788 363.934 -20.5726 364.727C-21.5696 365.123 -22.3862 365.266 -23.0257 365.176C-23.6617 365.087 -24.0948 364.773 -24.3737 364.295Z" stroke="#C0321C" stroke-width="1.09991"/>
<path opacity="0.517241" d="M-28.6423 358.227C-29.1142 357.055 -29.0335 354.956 -28.1933 351.725C-27.3653 348.541 -25.8556 344.481 -23.7079 339.638C-19.4163 329.962 -12.6403 317.304 -3.88715 302.532C13.6148 272.995 38.9739 235.084 68.0408 195.807C97.1077 156.529 124.367 123.339 144.939 101.428C155.227 90.4696 163.829 82.3477 170.142 77.6938C173.301 75.3648 175.865 73.9216 177.77 73.4127C179.702 72.8964 180.821 73.3751 181.293 74.5476C181.765 75.72 181.684 77.8191 180.844 81.0496C180.016 84.2335 178.506 88.2942 176.358 93.1365C172.067 102.812 165.291 115.47 156.538 130.243C139.036 159.78 113.677 197.691 84.6096 236.968C55.5427 276.245 28.2837 309.436 7.71184 331.347C-2.57661 342.305 -11.1786 350.427 -17.4917 355.081C-20.6511 357.41 -23.2144 358.853 -25.1192 359.362C-27.0519 359.878 -28.1703 359.4 -28.6423 358.227Z" stroke="#C0321C" stroke-width="1.09991"/>
<path opacity="0.551724" d="M-32.1084 351.078C-32.4746 349.696 -32.2286 347.438 -31.2203 344.163C-30.2206 340.917 -28.5252 336.852 -26.1801 332.061C-21.4938 322.485 -14.2843 310.15 -5.08442 295.894C13.3104 267.389 39.6071 231.288 69.4441 194.354C99.281 157.419 126.995 126.662 147.679 106.792C158.024 96.8541 166.595 89.6545 172.789 85.7623C175.888 83.8145 178.368 82.7102 180.17 82.4887C181.987 82.2652 183.014 82.9489 183.38 84.3302C183.746 85.7116 183.5 87.97 182.492 91.2445C181.492 94.4907 179.797 98.5556 177.452 103.347C172.765 112.923 165.556 125.257 156.356 139.514C137.961 168.018 111.664 204.12 81.8274 241.054C51.9905 277.989 24.2766 308.745 3.59225 328.616C-6.7527 338.554 -15.3238 345.753 -21.5171 349.646C-24.6163 351.593 -27.0968 352.698 -28.8985 352.919C-30.7159 353.143 -31.7421 352.459 -32.1084 351.078Z" stroke="#C0321C" stroke-width="1.09991"/>
<path opacity="0.586207" d="M-34.7522 342.91C-34.999 341.326 -34.5885 338.927 -33.4202 335.629C-32.2568 332.345 -30.389 328.307 -27.865 323.603C-22.8205 314.202 -15.2333 302.285 -5.65711 288.653C13.4897 261.399 40.5231 227.382 70.9027 193.072C101.282 158.761 129.239 130.673 149.878 112.994C160.2 104.152 168.675 97.9295 174.701 94.8279C177.716 93.276 180.095 92.518 181.78 92.5847C183.473 92.6517 184.396 93.5442 184.643 95.1283C184.89 96.7124 184.479 99.1114 183.311 102.409C182.147 105.693 180.28 109.732 177.756 114.436C172.711 123.837 165.124 135.754 155.548 149.385C136.401 176.64 109.368 210.657 78.988 244.967C48.6084 279.277 20.6515 307.366 0.0126593 325.044C-10.3097 333.886 -18.7841 340.109 -24.8101 343.211C-27.8252 344.762 -30.2041 345.52 -31.8895 345.454C-33.582 345.387 -34.5054 344.494 -34.7522 342.91Z" stroke="#C0321C" stroke-width="1.09991"/>
<path opacity="0.62069" d="M-36.5567 333.8C-36.6729 332.025 -36.1004 329.507 -34.7807 326.205C-33.4624 322.907 -31.4367 318.926 -28.7536 314.346C-23.3904 305.191 -15.4841 293.783 -5.60489 280.881C14.1473 255.084 41.7109 223.411 72.4013 191.986C103.092 160.561 131.078 135.355 151.514 120.002C161.735 112.323 170.047 107.125 175.86 104.836C178.768 103.692 181.027 103.285 182.584 103.639C184.143 103.993 184.953 105.096 185.069 106.871C185.185 108.647 184.612 111.165 183.293 114.467C181.974 117.765 179.949 121.745 177.266 126.325C171.902 135.48 163.996 146.889 154.117 159.791C134.365 185.588 106.801 217.261 76.1107 248.686C45.4203 280.11 17.4336 305.317 -3.00183 320.669C-13.2227 328.348 -21.5353 333.547 -27.3478 335.835C-30.2556 336.98 -32.5151 337.387 -34.0723 337.033C-35.6312 336.679 -36.4406 335.576 -36.5567 333.8Z" stroke="#C0321C" stroke-width="1.09991"/>
<path opacity="0.655172" d="M-37.5144 323.826C-37.4918 321.875 -36.7617 319.261 -35.2994 315.975C-33.836 312.687 -31.6678 308.793 -28.8468 304.372C-23.2066 295.533 -15.0422 284.721 -4.9358 272.646C15.2702 248.504 43.1534 219.416 73.9204 191.116C104.687 162.816 132.49 140.683 152.566 127.773C162.607 121.316 170.694 117.18 176.249 115.721C179.027 114.992 181.15 114.938 182.568 115.576C183.985 116.213 184.67 117.527 184.647 119.478C184.624 121.429 183.894 124.044 182.432 127.329C180.968 130.618 178.8 134.511 175.979 138.932C170.339 147.771 162.175 158.583 152.068 170.658C131.862 194.8 103.979 223.888 73.2121 252.188C42.4451 280.489 14.6426 302.621 -5.43316 315.531C-15.4744 321.988 -23.5614 326.124 -29.116 327.583C-31.8942 328.312 -34.0179 328.366 -35.4357 327.728C-36.8525 327.091 -37.5371 325.778 -37.5144 323.826Z" stroke="#C0321C" stroke-width="1.09991"/>
<path opacity="0.689655" d="M-37.6233 313.075C-37.4567 310.966 -36.5747 308.279 -34.9794 305.03C-33.3814 301.775 -31.0871 297.997 -28.1502 293.769C-22.2768 285.314 -13.9173 275.18 -3.66141 264.024C16.8435 241.721 44.8329 215.439 75.4416 190.479C106.05 165.519 133.456 146.629 153.019 136.259C162.803 131.072 170.603 128.029 175.857 127.41C178.485 127.1 180.457 127.399 181.726 128.317C182.992 129.232 183.542 130.751 183.375 132.861C183.209 134.971 182.327 137.657 180.731 140.907C179.133 144.162 176.839 147.94 173.902 152.167C168.029 160.623 159.669 170.757 149.413 181.912C128.909 204.215 100.919 230.497 70.3104 255.457C39.7017 280.417 12.2959 299.308 -7.2666 309.678C-17.0512 314.864 -24.8506 317.907 -30.1053 318.526C-32.7328 318.836 -34.7051 318.537 -35.9736 317.62C-37.24 316.704 -37.7898 315.185 -37.6233 313.075Z" stroke="#C0321C" stroke-width="1.09991"/>
<path opacity="0.724138" d="M-36.8863 301.64C-36.2602 297.144 -32.7626 290.673 -26.6741 282.629C-20.6129 274.622 -12.1229 265.243 -1.79631 255.092C18.8499 234.797 46.7314 211.522 76.948 190.092C107.165 168.661 133.964 153.156 152.864 145.404C162.316 141.527 169.769 139.6 174.684 139.823C179.621 140.047 181.885 142.431 181.259 146.927C180.633 151.424 177.135 157.895 171.047 165.938C164.986 173.946 156.496 183.325 146.169 193.476C125.523 213.77 97.6415 237.046 67.4249 258.476C37.2082 279.906 10.4088 295.411 -8.49068 303.163C-17.9436 307.041 -25.3959 308.968 -30.3109 308.745C-35.248 308.521 -37.5125 306.137 -36.8863 301.64Z" stroke="#C0321C" stroke-width="1.09991"/>
<path opacity="0.758621" d="M-35.3153 289.622C-34.3965 284.894 -30.6547 278.572 -24.4365 271.053C-18.2342 263.553 -9.67897 255 0.638689 245.931C21.2674 227.799 48.8274 207.707 78.4209 189.969C108.014 172.231 134.002 160.229 152.094 155.152C161.143 152.613 168.191 151.814 172.73 152.876C177.28 153.941 179.227 156.853 178.309 161.581C177.39 166.309 173.648 172.631 167.43 180.15C161.228 187.65 152.672 196.203 142.355 205.272C121.726 223.403 94.166 243.496 64.5725 261.234C34.9789 278.971 8.99105 290.974 -9.10075 296.05C-18.1495 298.589 -25.198 299.389 -29.7365 298.326C-34.2866 297.262 -36.2341 294.35 -35.3153 289.622Z" stroke="#C0321C" stroke-width="1.09991"/>
<path opacity="0.793103" d="M-32.9277 277.12C-31.7196 272.2 -27.7643 266.08 -21.4611 259.136C-15.1649 252.2 -6.61004 244.537 3.61913 236.619C24.0718 220.787 51.099 204.03 79.8429 190.119C108.587 176.208 133.564 167.798 150.71 165.433C159.285 164.251 165.876 164.584 170.005 166.475C174.138 168.369 175.749 171.794 174.541 176.714C173.333 181.634 169.378 187.754 163.075 194.698C156.778 201.634 148.224 209.297 137.994 217.215C117.542 233.046 90.5145 249.804 61.7705 263.715C33.0266 277.626 8.04923 286.036 -9.09651 288.401C-17.6718 289.583 -24.263 289.25 -28.3914 287.359C-32.5245 285.465 -34.1359 282.04 -32.9277 277.12Z" stroke="#C0321C" stroke-width="1.09991"/>
<path opacity="0.827586" d="M-29.7478 264.244C-28.2571 259.175 -24.1208 253.309 -17.7772 246.986C-11.4347 240.664 -2.94539 233.948 7.11648 227.241C27.2359 213.829 53.5232 200.532 81.1975 190.553C108.872 180.573 132.648 175.817 148.716 176.18C156.753 176.361 162.837 177.822 166.525 180.526C170.214 183.232 171.472 187.152 169.982 192.222C168.491 197.291 164.355 203.157 158.011 209.48C151.668 215.802 143.179 222.518 133.117 229.225C112.998 242.637 86.7106 255.934 59.0363 265.913C31.3619 275.893 7.58624 280.649 -8.48261 280.286C-16.5188 280.105 -22.6034 278.644 -26.2915 275.939C-29.9802 273.234 -31.2386 269.314 -29.7478 264.244Z" stroke="#C0321C" stroke-width="1.09991"/>
<path opacity="0.862069" d="M-25.8075 251.105C-24.0441 245.93 -19.7611 240.368 -13.4219 234.709C-7.08027 229.047 1.27925 223.327 11.0966 217.88C30.7288 206.988 56.075 197.251 82.4681 191.277C108.861 185.303 131.254 184.234 146.124 187.317C153.56 188.859 159.093 191.434 162.314 194.931C165.533 198.426 166.425 202.818 164.661 207.993C162.898 213.168 158.615 218.731 152.276 224.39C145.934 230.051 137.574 235.771 127.757 241.218C108.125 252.11 82.7786 261.848 56.3855 267.822C29.9923 273.796 7.59993 274.864 -7.27006 271.781C-14.7061 270.24 -20.239 267.664 -23.4601 264.168C-26.6799 260.672 -27.571 256.281 -25.8075 251.105Z" stroke="#C0321C" stroke-width="1.09991"/>
<path opacity="0.896552" d="M-21.1449 237.816C-17.0986 227.344 -3.52856 216.94 15.5213 208.622C34.5171 200.329 58.7294 194.222 83.6401 192.296C108.551 190.37 129.39 192.993 142.949 198.769C156.547 204.562 162.666 213.444 158.619 223.916C154.573 234.388 141.003 244.792 121.953 253.109C102.957 261.403 78.7452 267.509 53.8344 269.436C28.9237 271.362 8.08445 268.739 -5.47489 262.963C-19.0729 257.17 -25.1911 248.288 -21.1449 237.816Z" stroke="#C0321C" stroke-width="1.09991"/>
<path opacity="0.931035" d="M-15.807 224.486C-11.2754 213.989 2.08945 205.195 20.3449 199.548C38.5618 193.912 61.4578 191.478 84.6978 193.611C107.938 195.744 127.068 202.034 139.216 210.457C151.39 218.897 156.433 229.38 151.902 239.877C147.37 250.374 134.005 259.167 115.75 264.815C97.5328 270.451 74.6369 272.885 51.3968 270.752C28.1568 268.619 9.02708 262.329 -3.12112 253.906C-15.295 245.466 -20.3385 234.983 -15.807 224.486Z" stroke="#C0321C" stroke-width="1.09991"/>
<path opacity="0.965517" d="M-9.84523 211.225C-4.86515 200.793 8.18609 193.68 25.5186 190.736C42.8224 187.797 64.232 189.051 85.628 195.224C107.024 201.397 124.303 211.304 134.951 222.307C145.617 233.328 149.54 245.338 144.56 255.771C139.58 266.203 126.529 273.316 109.196 276.26C91.8925 279.199 70.4829 277.945 49.0869 271.772C27.6909 265.599 10.412 255.692 -0.236409 244.689C-10.9026 233.668 -14.8253 221.658 -9.84523 211.225Z" stroke="#C0321C" stroke-width="1.09991"/>
<path d="M-3.31395 198.135C2.07231 187.858 14.7032 182.479 30.9924 182.257C47.2569 182.035 67.0235 186.965 86.4179 197.13C105.812 207.295 121.114 220.744 130.186 234.246C139.272 247.768 142.035 261.215 136.649 271.492C131.263 281.769 118.632 287.147 102.343 287.37C86.0783 287.592 66.3117 282.662 46.9173 272.497C27.5228 262.332 12.2208 248.883 3.14908 235.381C-5.93638 221.859 -8.70022 208.412 -3.31395 198.135Z" stroke="#C0321C" stroke-width="1.09991"/>
</g>
</svg>
