<svg width="213" height="228" viewBox="0 0 213 228" fill="none" xmlns="http://www.w3.org/2000/svg">
<g opacity="0.4">
<path opacity="0.0344828" d="M60.3505 176.938C60.341 175.405 60.998 173.824 62.4167 172.199C63.8408 170.567 65.9918 168.94 68.8469 167.354C74.5561 164.182 82.8941 161.274 93.2899 158.799C114.066 153.852 142.84 150.683 174.678 150.485C206.516 150.286 235.328 153.095 256.164 157.783C266.589 160.128 274.963 162.932 280.711 166.032C283.586 167.583 285.757 169.183 287.202 170.796C288.64 172.404 289.317 173.976 289.327 175.51C289.336 177.044 288.679 178.624 287.261 180.25C285.836 181.882 283.685 183.509 280.83 185.095C275.121 188.266 266.783 191.175 256.387 193.65C235.612 198.597 206.838 201.765 174.999 201.964C143.161 202.163 114.349 199.353 93.5136 194.666C83.0878 192.32 74.7141 189.516 68.9658 186.416C66.0912 184.866 63.92 183.266 62.4756 181.652C61.0368 180.044 60.3601 178.472 60.3505 176.938Z" stroke="#C0321C" stroke-width="2"/>
<path opacity="0.0689655" d="M60.1271 166.255C60.2512 164.727 61.0435 163.209 62.5984 161.714C64.1594 160.212 66.444 158.779 69.4264 157.448C75.3904 154.786 83.9501 152.615 94.5221 151.055C115.65 147.938 144.591 147.289 176.325 149.866C208.06 152.443 236.517 157.753 256.864 164.239C267.046 167.484 275.144 171.007 280.6 174.596C283.328 176.391 285.352 178.174 286.65 179.908C287.943 181.635 288.481 183.26 288.356 184.789C288.232 186.318 287.44 187.835 285.885 189.331C284.324 190.832 282.039 192.265 279.057 193.597C273.093 196.259 264.533 198.429 253.961 199.989C232.834 203.106 203.893 203.755 172.158 201.178C140.424 198.601 111.967 193.291 91.6189 186.806C81.4372 183.56 73.3398 180.037 67.8835 176.448C65.1549 174.653 63.1315 172.87 61.8333 171.136C60.54 169.409 60.0029 167.784 60.1271 166.255Z" stroke="#C0321C" stroke-width="2"/>
<path opacity="0.103448" d="M60.7719 155.642C61.0288 154.13 61.9503 152.688 63.6297 151.333C65.3156 149.973 67.7164 148.745 70.8035 147.679C76.9767 145.546 85.6931 144.13 96.3608 143.498C117.68 142.234 146.567 144.11 177.956 149.443C209.345 154.776 237.231 162.546 256.936 170.78C266.797 174.9 274.556 179.116 279.679 183.167C282.241 185.193 284.101 187.146 285.243 188.986C286.381 190.819 286.774 192.485 286.517 193.997C286.26 195.509 285.339 196.951 283.66 198.306C281.974 199.666 279.573 200.894 276.486 201.96C270.312 204.093 261.596 205.509 250.928 206.141C229.609 207.405 200.722 205.529 169.333 200.196C137.944 194.863 110.058 187.093 90.3528 178.859C80.4927 174.739 72.7331 170.523 67.6104 166.472C65.0487 164.446 63.1884 162.494 62.0462 160.653C60.9084 158.82 60.515 157.154 60.7719 155.642Z" stroke="#C0321C" stroke-width="2"/>
<path opacity="0.137931" d="M62.2756 145.175C62.6633 143.691 63.7071 142.334 65.4981 141.131C67.2961 139.924 69.7948 138.909 72.9631 138.116C79.2987 136.53 88.1053 135.879 98.7875 136.178C120.136 136.777 148.749 141.164 179.554 149.212C210.359 157.261 237.462 167.431 256.374 177.352C265.838 182.316 273.2 187.191 277.951 191.674C280.326 193.915 282.009 196.023 282.987 197.955C283.96 199.881 284.207 201.575 283.819 203.059C283.432 204.542 282.388 205.899 280.597 207.102C278.799 208.31 276.3 209.324 273.132 210.117C266.796 211.703 257.99 212.354 247.307 212.055C225.959 211.456 197.346 207.069 166.541 199.021C135.736 190.972 108.633 180.802 89.7205 170.881C80.257 165.917 72.8943 161.042 68.1443 156.559C65.7689 154.318 64.0858 152.211 63.1083 150.278C62.1346 148.353 61.8879 146.659 62.2756 145.175Z" stroke="#C0321C" stroke-width="2"/>
<path opacity="0.172414" d="M64.6225 134.928C65.1381 133.484 66.2961 132.223 68.1852 131.181C70.0816 130.135 72.6592 129.342 75.8846 128.828C82.3343 127.8 91.1641 127.919 101.78 129.148C122.994 131.605 151.117 138.469 181.103 149.172C211.089 159.875 237.202 172.369 255.178 183.9C264.173 189.67 271.083 195.168 275.424 200.048C277.595 202.488 279.088 204.734 279.893 206.744C280.696 208.747 280.794 210.456 280.278 211.901C279.763 213.345 278.605 214.606 276.716 215.648C274.819 216.694 272.241 217.487 269.016 218.001C262.566 219.029 253.737 218.91 243.121 217.68C221.906 215.224 193.784 208.36 163.798 197.657C133.811 186.954 107.698 174.46 89.7225 162.929C80.7276 157.159 73.8179 151.66 69.4766 146.781C67.3056 144.341 65.8126 142.095 65.0073 140.085C64.2051 138.082 64.1069 136.373 64.6225 134.928Z" stroke="#C0321C" stroke-width="2"/>
<path opacity="0.206897" d="M67.7899 124.974C68.4295 123.58 69.6929 122.425 71.6656 121.551C73.646 120.674 76.283 120.109 79.5408 119.878C86.0556 119.416 94.8414 120.305 105.309 122.455C126.229 126.751 153.646 136.04 182.586 149.315C211.525 162.591 236.45 177.313 253.352 190.367C261.81 196.899 268.214 202.979 272.114 208.218C274.064 210.838 275.355 213.206 275.982 215.279C276.607 217.344 276.556 219.055 275.916 220.449C275.277 221.843 274.013 222.998 272.041 223.872C270.06 224.749 267.423 225.314 264.165 225.545C257.651 226.007 248.865 225.118 238.397 222.968C217.477 218.672 190.06 209.383 161.121 196.107C132.181 182.832 107.256 168.11 90.354 155.056C81.8962 148.524 75.4921 142.444 71.5925 137.205C69.6425 134.585 68.3508 132.217 67.7238 130.144C67.0993 128.079 67.1504 126.368 67.7899 124.974Z" stroke="#C0321C" stroke-width="2"/>
<path opacity="0.241379" d="M71.7493 115.383C72.5079 114.05 73.8672 113.01 75.9085 112.311C77.9578 111.61 80.634 111.277 83.8996 111.331C90.4298 111.439 99.1048 113.089 109.346 116.143C129.811 122.247 156.315 133.89 183.987 149.637C211.659 165.384 235.206 182.223 250.906 196.7C258.762 203.945 264.612 210.56 268.04 216.119C269.755 218.899 270.835 221.37 271.279 223.49C271.721 225.601 271.521 227.301 270.763 228.634C270.004 229.967 268.645 231.008 266.603 231.706C264.554 232.407 261.878 232.741 258.612 232.687C252.082 232.579 243.407 230.928 233.166 227.874C212.701 221.771 186.197 210.128 158.525 194.38C130.853 178.633 107.306 161.795 91.6056 147.317C83.7493 140.073 77.8995 133.458 74.4714 127.899C72.7571 125.119 71.6767 122.648 71.2328 120.528C70.7906 118.416 70.9907 116.716 71.7493 115.383Z" stroke="#C0321C" stroke-width="2"/>
<path opacity="0.275862" d="M76.4666 106.224C77.3385 104.962 78.7833 104.044 80.8777 103.526C82.9803 103.006 85.6753 102.907 88.9238 103.246C95.4198 103.922 103.918 106.323 113.854 110.258C133.709 118.122 159.097 132.03 185.292 150.129C211.486 168.229 233.476 187.055 247.855 202.846C255.05 210.747 260.301 217.847 263.231 223.684C264.697 226.603 265.557 229.158 265.815 231.309C266.071 233.451 265.724 235.127 264.852 236.389C263.98 237.651 262.535 238.569 260.441 239.087C258.338 239.606 255.643 239.705 252.395 239.367C245.899 238.69 237.401 236.29 227.465 232.355C207.609 224.491 182.222 210.582 156.027 192.483C129.833 174.384 107.843 155.557 93.4641 139.767C86.2691 131.865 81.0181 124.766 78.0875 118.929C76.6221 116.01 75.7612 113.454 75.5037 111.304C75.2472 109.162 75.5947 107.485 76.4666 106.224Z" stroke="#C0321C" stroke-width="2"/>
<path opacity="0.310345" d="M81.9 97.5595C82.8786 96.3785 84.3979 95.59 86.5295 95.2567C88.6694 94.922 91.3628 95.0585 94.5694 95.6787C100.982 96.9188 109.238 100.051 118.793 104.837C137.888 114.401 161.967 130.47 186.484 150.783C211.002 171.096 231.267 191.768 244.215 208.752C250.694 217.25 255.306 224.78 257.717 230.85C258.922 233.886 259.557 236.507 259.626 238.672C259.695 240.828 259.203 242.467 258.224 243.648C257.245 244.829 255.726 245.618 253.595 245.951C251.455 246.286 248.761 246.149 245.555 245.529C239.142 244.289 230.886 241.157 221.331 236.371C202.236 226.807 178.157 210.738 153.64 190.425C129.123 170.112 108.857 149.44 95.9095 132.456C89.4305 123.958 84.8182 116.428 82.4075 110.358C81.202 107.322 80.5671 104.701 80.498 102.536C80.4293 100.38 80.9215 98.7406 81.9 97.5595Z" stroke="#C0321C" stroke-width="2"/>
<path opacity="0.344828" d="M88.0048 89.451C89.0826 88.3597 90.6648 87.7066 92.8174 87.5604C94.9783 87.4135 97.6495 87.7842 100.79 88.6815C107.07 90.4758 115.022 94.3153 124.123 99.9159C142.312 111.108 164.899 129.214 187.552 151.587C210.206 173.96 228.592 196.319 240.011 214.367C245.724 223.397 249.663 231.301 251.535 237.558C252.472 240.687 252.876 243.353 252.756 245.516C252.636 247.67 252.003 249.26 250.925 250.352C249.848 251.443 248.265 252.096 246.113 252.242C243.952 252.389 241.281 252.018 238.14 251.121C231.86 249.327 223.908 245.487 214.807 239.887C196.618 228.694 174.031 210.588 151.378 188.216C128.724 165.843 110.338 143.484 98.9195 125.436C93.2058 116.405 89.2674 108.502 87.3949 102.245C86.4585 99.1157 86.0545 96.4493 86.1744 94.2867C86.2938 92.1325 86.9271 90.5422 88.0048 89.451Z" stroke="#C0321C" stroke-width="2"/>
<path opacity="0.37931" d="M94.7293 81.9544C95.898 80.9613 97.5312 80.4486 99.6883 80.4905C101.854 80.5325 104.483 81.1347 107.533 82.3022C113.632 84.637 121.22 89.155 129.798 95.5274C146.942 108.263 167.865 128.268 188.482 152.53C209.1 176.792 225.468 200.669 235.27 219.643C240.174 229.137 243.409 237.354 244.729 243.75C245.389 246.949 245.559 249.641 245.251 251.784C244.945 253.92 244.175 255.449 243.006 256.442C241.838 257.435 240.204 257.948 238.047 257.906C235.882 257.864 233.253 257.262 230.203 256.094C224.103 253.76 216.516 249.242 207.937 242.869C190.794 230.134 169.871 210.129 149.253 185.867C128.636 161.605 112.268 137.728 102.466 118.754C97.5613 109.26 94.3267 101.043 93.0066 94.6463C92.3465 91.4477 92.1765 88.7562 92.4844 86.6123C92.7911 84.4767 93.5605 82.9476 94.7293 81.9544Z" stroke="#C0321C" stroke-width="2"/>
<path opacity="0.413793" d="M102.018 75.1222C103.269 74.2346 104.94 73.8663 107.086 74.096C109.239 74.3266 111.806 75.1556 114.742 76.5845C120.615 79.442 127.78 84.6041 135.771 91.7C151.739 105.881 170.839 127.634 189.263 153.6C207.688 179.567 221.912 204.779 230.023 224.536C234.082 234.421 236.588 242.889 237.346 249.376C237.724 252.62 237.659 255.316 237.166 257.425C236.674 259.525 235.774 260.982 234.523 261.869C233.272 262.757 231.601 263.125 229.456 262.895C227.302 262.665 224.736 261.836 221.799 260.407C215.926 257.549 208.761 252.387 200.771 245.291C184.802 231.111 165.702 209.358 147.278 183.391C128.853 157.424 114.629 132.212 106.518 112.456C102.459 102.57 99.9533 94.1027 99.1957 87.6156C98.8169 84.3716 98.8821 81.6755 99.3757 79.5666C99.8673 77.4659 100.767 76.0097 102.018 75.1222Z" stroke="#C0321C" stroke-width="2"/>
<path opacity="0.448276" d="M109.811 69.0002C111.134 68.225 112.832 68.0038 114.949 68.4196C117.074 68.837 119.558 69.8865 122.359 71.566C127.961 74.9244 134.648 80.6913 141.99 88.4566C156.662 103.975 173.793 127.31 189.884 154.784C205.976 182.257 217.948 208.613 224.307 229.001C227.488 239.203 229.247 247.857 229.436 254.385C229.531 257.65 229.231 260.33 228.555 262.388C227.883 264.438 226.859 265.81 225.536 266.585C224.212 267.36 222.515 267.582 220.398 267.166C218.273 266.748 215.788 265.699 212.987 264.019C207.386 260.661 200.698 254.894 193.357 247.129C178.684 231.61 161.553 208.275 145.462 180.802C129.371 153.328 117.398 126.972 111.04 106.584C107.858 96.3822 106.1 87.7285 105.91 81.2001C105.816 77.9354 106.116 75.2553 106.791 73.1974C107.464 71.1475 108.487 69.7753 109.811 69.0002Z" stroke="#C0321C" stroke-width="2"/>
<path opacity="0.482759" d="M118.045 63.631C119.431 62.9741 121.141 62.9016 123.213 63.5004C125.294 64.1015 127.678 65.3635 130.322 67.2807C135.609 71.1146 141.769 77.4424 148.406 85.818C161.669 102.556 176.701 127.296 190.337 156.067C203.972 184.838 213.602 212.138 218.16 233.002C220.44 243.443 221.438 252.217 221.057 258.737C220.867 261.997 220.335 264.641 219.482 266.632C218.633 268.616 217.494 269.893 216.108 270.55C214.722 271.207 213.012 271.28 210.94 270.681C208.859 270.08 206.475 268.818 203.831 266.901C198.544 263.067 192.384 256.739 185.747 248.363C172.484 231.625 157.452 206.886 143.816 178.114C130.181 149.343 120.551 122.044 115.993 101.179C113.713 90.7386 112.715 81.9646 113.096 75.4446C113.286 72.184 113.818 69.5403 114.671 67.5491C115.52 65.5657 116.659 64.2879 118.045 63.631Z" stroke="#C0321C" stroke-width="2"/>
<path opacity="0.517241" d="M126.651 59.0483C128.089 58.5148 129.799 58.5916 131.812 59.3687C133.832 60.1489 136.097 61.6138 138.564 63.7542C143.497 68.0343 149.081 74.8748 154.963 83.797C166.717 101.628 179.536 127.583 190.612 157.433C201.688 187.284 208.902 215.318 211.624 236.501C212.985 247.1 213.215 255.928 212.267 262.39C211.794 265.621 211.033 268.209 210.01 270.118C208.992 272.02 207.746 273.193 206.308 273.727C204.87 274.261 203.16 274.184 201.147 273.407C199.126 272.626 196.862 271.162 194.395 269.021C189.462 264.741 183.878 257.9 177.996 248.978C166.242 231.148 153.423 205.192 142.347 175.342C131.271 145.492 124.057 117.457 121.335 96.2746C119.973 85.6753 119.744 76.8477 120.691 70.3856C121.165 67.1541 121.926 64.5667 122.948 62.6574C123.967 60.7555 125.213 59.5819 126.651 59.0483Z" stroke="#C0321C" stroke-width="2"/>
<path opacity="0.551724" d="M135.561 55.2829C137.04 54.8767 138.737 55.1022 140.674 56.0518C142.619 57.0051 144.747 58.6618 147.018 61.009C151.559 65.7028 156.526 73.0041 161.608 82.4049C171.764 101.192 182.271 128.166 190.704 158.868C199.136 189.57 203.879 218.127 204.744 239.466C205.177 250.144 204.636 258.958 203.129 265.312C202.375 268.49 201.392 271.002 200.207 272.814C199.027 274.62 197.683 275.681 196.204 276.087C194.725 276.493 193.028 276.268 191.091 275.318C189.146 274.365 187.018 272.708 184.747 270.361C180.206 265.667 175.239 258.366 170.157 248.965C160.001 230.178 149.494 203.204 141.061 172.502C132.629 141.8 127.886 113.243 127.021 91.9042C126.588 81.2265 127.129 72.4125 128.636 66.0576C129.389 62.8796 130.373 60.3685 131.558 58.5555C132.738 56.7497 134.082 55.6891 135.561 55.2829Z" stroke="#C0321C" stroke-width="2"/>
<path opacity="0.586207" d="M144.701 52.3577C146.21 52.082 147.881 52.4546 149.728 53.5694C151.582 54.6886 153.558 56.5244 155.616 59.0607C159.731 64.1324 164.042 71.8388 168.285 81.6468C176.765 101.248 184.882 129.034 190.606 160.355C196.33 191.675 198.567 220.536 197.569 241.87C197.069 252.544 195.762 261.278 193.707 267.477C192.679 270.577 191.481 272.993 190.142 274.696C188.809 276.392 187.378 277.331 185.869 277.607C184.36 277.883 182.69 277.51 180.843 276.395C178.988 275.276 177.013 273.44 174.955 270.904C170.84 265.833 166.528 258.126 162.285 248.318C153.806 228.717 145.689 200.93 139.964 169.61C134.24 138.29 132.004 109.428 133.002 88.0954C133.501 77.4206 134.809 68.6873 136.864 62.4879C137.891 59.3877 139.09 56.9718 140.428 55.2691C141.762 53.573 143.193 52.6335 144.701 52.3577Z" stroke="#C0321C" stroke-width="2"/>
<path opacity="0.62069" d="M153.999 50.2901C155.526 50.1469 157.157 50.6637 158.9 51.9352C160.65 53.2117 162.458 55.2128 164.287 57.9187C167.944 63.3298 171.568 71.3826 174.94 81.5231C181.679 101.788 187.343 130.177 190.316 161.877C193.289 193.577 193.001 222.523 190.148 243.688C188.72 254.279 186.656 262.865 184.069 268.862C182.775 271.861 181.37 274.163 179.889 275.743C178.412 277.316 176.905 278.127 175.378 278.27C173.851 278.414 172.219 277.897 170.476 276.625C168.726 275.349 166.918 273.348 165.089 270.642C161.432 265.231 157.808 257.178 154.436 247.037C147.697 226.772 142.033 198.383 139.06 166.684C136.088 134.984 136.375 106.037 139.229 84.872C140.657 74.2814 142.72 65.6953 145.308 59.6986C146.602 56.6998 148.006 54.3975 149.488 52.8179C150.964 51.2444 152.472 50.4333 153.999 50.2901Z" stroke="#C0321C" stroke-width="2"/>
<path opacity="0.655172" d="M163.377 49.089C164.911 49.0795 166.491 49.7365 168.117 51.1552C169.748 52.5793 171.375 54.7303 172.961 57.5854C176.133 63.2946 179.041 71.6326 181.517 82.0284C186.464 102.804 189.632 131.578 189.831 163.417C190.029 195.255 187.22 224.066 182.533 244.902C180.187 255.328 177.383 263.702 174.283 269.45C172.732 272.325 171.133 274.496 169.519 275.94C167.911 277.379 166.339 278.056 164.805 278.065C163.271 278.075 161.691 277.418 160.065 275.999C158.433 274.575 156.807 272.424 155.221 269.569C152.049 263.86 149.141 255.522 146.665 245.126C141.718 224.35 138.55 195.576 138.351 163.738C138.153 131.899 140.962 103.088 145.649 82.2522C147.995 71.8263 150.799 63.4526 153.899 57.7043C155.449 54.8297 157.049 52.6586 158.663 51.2141C160.271 49.7753 161.843 49.0986 163.377 49.089Z" stroke="#C0321C" stroke-width="2"/>
<path opacity="0.689655" d="M172.761 48.7601C174.29 48.8843 175.807 49.6766 177.303 51.2315C178.804 52.7925 180.237 55.0771 181.568 58.0595C184.231 64.0234 186.401 72.5832 187.961 83.1552C191.078 104.283 191.727 133.224 189.15 164.958C186.573 196.693 181.263 225.15 174.778 245.498C171.532 255.679 168.009 263.777 164.42 269.233C162.625 271.962 160.842 273.985 159.108 275.283C157.381 276.576 155.756 277.114 154.227 276.989C152.698 276.865 151.181 276.073 149.685 274.518C148.184 272.957 146.751 270.672 145.42 267.69C142.757 261.726 140.587 253.166 139.027 242.594C135.91 221.467 135.261 192.526 137.838 160.791C140.415 129.057 145.725 100.6 152.21 80.252C155.456 70.0702 158.979 61.9728 162.568 56.5166C164.363 53.788 166.146 51.7646 167.88 50.4663C169.607 49.1731 171.232 48.636 172.761 48.7601Z" stroke="#C0321C" stroke-width="2"/>
<path opacity="0.724138" d="M182.074 49.299C183.586 49.5559 185.029 50.4774 186.383 52.1568C187.743 53.8427 188.971 56.2435 190.038 59.3306C192.17 65.5038 193.586 74.2202 194.218 84.8879C195.483 106.207 193.606 135.094 188.273 166.483C182.94 197.872 175.171 225.758 166.936 245.464C162.816 255.324 158.601 263.083 154.549 268.206C152.523 270.768 150.571 272.628 148.731 273.77C146.897 274.908 145.232 275.301 143.719 275.044C142.207 274.788 140.765 273.866 139.41 272.187C138.051 270.501 136.822 268.1 135.756 265.013C133.624 258.84 132.208 250.123 131.575 239.456C130.311 218.137 132.187 189.249 137.52 157.86C142.853 126.471 150.623 98.5851 158.857 78.8799C162.978 69.0198 167.193 61.2602 171.244 56.1375C173.27 53.5758 175.223 51.7155 177.063 50.5733C178.896 49.4355 180.562 49.0421 182.074 49.299Z" stroke="#C0321C" stroke-width="2"/>
<path opacity="0.758621" d="M191.241 50.6972C192.725 51.085 194.082 52.1287 195.285 53.9197C196.493 55.7177 197.507 58.2164 198.3 61.3847C199.886 67.7203 200.537 76.5269 200.238 87.2092C199.639 108.557 195.252 137.171 187.204 167.976C179.155 198.781 168.985 225.883 159.064 244.796C154.1 254.259 149.225 261.622 144.742 266.372C142.501 268.748 140.394 270.431 138.461 271.408C136.536 272.382 134.842 272.629 133.358 272.241C131.874 271.853 130.517 270.809 129.314 269.018C128.107 267.22 127.092 264.722 126.299 261.553C124.713 255.218 124.062 246.411 124.361 235.729C124.96 214.381 129.347 185.767 137.395 154.962C145.444 124.157 155.614 97.0547 165.535 78.1421C170.499 68.6786 175.374 61.316 179.857 56.5659C182.098 54.1905 184.206 52.5074 186.138 51.5299C188.064 50.5562 189.758 50.3095 191.241 50.6972Z" stroke="#C0321C" stroke-width="2"/>
<path opacity="0.793103" d="M200.189 52.9387C201.633 53.4543 202.894 54.6123 203.936 56.5013C204.983 58.3977 205.776 60.9754 206.29 64.2007C207.317 70.6505 207.198 79.4803 205.969 90.0958C203.512 111.31 196.648 139.433 185.945 169.419C175.242 199.405 162.748 225.518 151.217 243.494C145.448 252.489 139.949 259.399 135.069 263.74C132.629 265.911 130.384 267.404 128.373 268.21C126.37 269.012 124.661 269.11 123.217 268.594C121.772 268.079 120.512 266.921 119.469 265.032C118.423 263.135 117.63 260.558 117.116 257.332C116.088 250.883 116.207 242.053 117.437 231.437C119.894 210.223 126.758 182.1 137.46 152.114C148.163 122.128 160.657 96.0146 172.188 78.0387C177.958 69.0438 183.457 62.1341 188.336 57.7928C190.776 55.6218 193.022 54.1287 195.033 53.3234C197.035 52.5213 198.744 52.4231 200.189 52.9387Z" stroke="#C0321C" stroke-width="2"/>
<path opacity="0.827586" d="M208.843 56.0009C210.237 56.6404 211.392 57.9039 212.265 59.8766C213.143 61.8569 213.708 64.4939 213.939 67.7518C214.401 74.2665 213.512 83.0524 211.362 93.5203C207.066 114.44 197.777 141.857 184.501 170.797C171.226 199.736 156.504 224.661 143.45 241.563C136.918 250.021 130.838 256.425 125.599 260.325C122.979 262.275 120.611 263.566 118.538 264.193C116.473 264.818 114.762 264.767 113.368 264.127C111.974 263.488 110.819 262.224 109.945 260.252C109.068 258.271 108.503 255.634 108.272 252.376C107.81 245.862 108.698 237.076 110.848 226.608C115.145 205.688 124.434 178.271 137.709 149.332C150.985 120.392 165.707 95.4674 178.761 78.5649C185.293 70.1071 191.373 63.703 196.612 59.8035C199.232 57.8534 201.6 56.5618 203.673 55.9348C205.738 55.3102 207.449 55.3614 208.843 56.0009Z" stroke="#C0321C" stroke-width="2"/>
<path opacity="0.862069" d="M217.134 59.8547C218.467 60.6133 219.507 61.9727 220.206 64.014C220.907 66.0633 221.24 68.7394 221.186 72.0051C221.079 78.5353 219.428 87.2103 216.374 97.451C210.27 117.917 198.627 144.42 182.88 172.092C167.133 199.764 150.294 223.311 135.817 239.012C128.573 246.868 121.958 252.718 116.399 256.146C113.619 257.86 111.148 258.941 109.028 259.384C106.916 259.827 105.216 259.627 103.883 258.868C102.55 258.109 101.51 256.75 100.811 254.709C100.11 252.659 99.7768 249.983 99.8307 246.718C99.9385 240.187 101.589 231.512 104.643 221.272C110.747 200.806 122.39 174.303 138.137 146.631C153.884 118.958 170.723 95.4116 185.2 79.7111C192.444 71.8548 199.059 66.0049 204.618 62.5769C207.398 60.8626 209.869 59.7822 211.989 59.3383C214.101 58.8961 215.801 59.0962 217.134 59.8547Z" stroke="#C0321C" stroke-width="2"/>
<path opacity="0.896552" d="M224.994 64.4661C226.256 65.338 227.174 66.7828 227.692 68.8772C228.212 70.9798 228.31 73.6749 227.972 76.9233C227.295 83.4193 224.895 91.9174 220.96 101.853C213.096 121.709 199.187 147.097 181.088 173.291C162.989 199.485 144.163 221.475 128.372 235.854C120.47 243.049 113.371 248.3 107.534 251.231C104.615 252.696 102.059 253.557 99.9089 253.814C97.7667 254.071 96.0906 253.723 94.8288 252.852C93.5669 251.98 92.649 250.535 92.1312 248.44C91.6114 246.338 91.5126 243.643 91.8509 240.394C92.5274 233.898 94.9278 225.4 98.8628 215.465C106.727 195.609 120.636 170.221 138.735 144.027C156.834 117.832 175.66 95.8426 191.451 81.4637C199.352 74.2686 206.452 69.0176 212.289 66.0871C215.208 64.6216 217.763 63.7607 219.914 63.5032C222.056 63.2467 223.732 63.5942 224.994 64.4661Z" stroke="#C0321C" stroke-width="2"/>
<path opacity="0.931035" d="M232.359 69.7938C233.54 70.7724 234.328 72.2917 234.662 74.4233C234.996 76.5632 234.86 79.2566 234.24 82.4632C232.999 88.8755 229.868 97.1321 225.082 106.687C215.517 125.782 199.448 149.861 179.135 174.378C158.822 198.895 138.15 219.16 121.167 232.108C112.668 238.587 105.138 243.2 99.068 245.61C96.0326 246.816 93.4115 247.451 91.2467 247.52C89.0903 247.589 87.4509 247.096 86.2698 246.118C85.0888 245.139 84.3003 243.62 83.967 241.488C83.6323 239.348 83.7688 236.655 84.389 233.448C85.6291 227.036 88.7609 218.78 93.5469 209.225C103.112 190.13 119.18 166.051 139.493 141.534C159.806 117.016 180.478 96.7513 197.462 83.8033C205.96 77.3243 213.491 72.712 219.561 70.3013C222.596 69.0958 225.217 68.4609 227.382 68.3918C229.538 68.3231 231.178 68.8153 232.359 69.7938Z" stroke="#C0321C" stroke-width="2"/>
<path opacity="0.965517" d="M239.168 75.7932C240.259 76.8709 240.912 78.4532 241.058 80.6057C241.205 82.7666 240.834 85.4379 239.937 88.5783C238.143 94.8581 234.303 102.81 228.703 111.912C217.51 130.1 199.404 152.687 177.032 175.341C154.659 197.994 132.3 216.381 114.252 227.799C105.221 233.513 97.3177 237.451 91.0608 239.324C87.9318 240.26 85.2654 240.664 83.1028 240.544C80.9486 240.425 79.3583 239.791 78.2671 238.714C77.1758 237.636 76.5227 236.054 76.3764 233.901C76.2296 231.74 76.6003 229.069 77.4976 225.929C79.2919 219.649 83.1314 211.697 88.7319 202.595C99.9244 184.407 118.03 161.82 140.403 139.166C162.776 116.513 185.135 98.1263 203.183 86.7078C212.213 80.9942 220.117 77.0557 226.374 75.1832C229.503 74.2469 232.169 73.8429 234.332 73.9627C236.486 74.0821 238.076 74.7154 239.168 75.7932Z" stroke="#C0321C" stroke-width="2"/>
<path d="M245.364 82.4124C246.357 83.5811 246.87 85.2143 246.828 87.3714C246.786 89.5369 246.184 92.1657 245.016 95.2159C242.681 101.315 238.163 108.903 231.791 117.481C219.056 134.625 199.05 155.548 174.788 176.166C150.526 196.783 126.65 213.151 107.676 222.953C98.1812 227.858 89.9643 231.092 83.568 232.412C80.3693 233.072 77.6778 233.242 75.5339 232.934C73.3983 232.628 71.8693 231.858 70.8761 230.69C69.8829 229.521 69.3703 227.888 69.4121 225.73C69.4542 223.565 70.0563 220.936 71.2239 217.886C73.5586 211.786 78.0766 204.199 84.4491 195.621C97.1842 178.477 117.19 157.554 141.452 136.936C165.714 116.319 189.59 99.9513 208.564 90.1492C218.059 85.2444 226.276 82.0098 232.672 80.6898C235.871 80.0296 238.562 79.8596 240.706 80.1675C242.842 80.4742 244.371 81.2436 245.364 82.4124Z" stroke="#C0321C" stroke-width="2"/>
</g>
</svg>
