<svg width="242" height="297" viewBox="0 0 242 297" fill="none" xmlns="http://www.w3.org/2000/svg">
<path opacity="0.0526316" d="M149.379 221.551C158.914 229.356 182.236 238.978 199.246 215.028C220.507 185.089 211.364 136.303 226.644 101.663C237.922 76.0953 277.454 27.1666 319.81 41.074" stroke="#606060"/>
<path opacity="0.105263" d="M134.761 202.681C143.94 211.548 167.188 224.17 186.749 203.723C211.2 178.164 205.873 130.115 224.549 99.1793C238.333 76.3466 283.229 35.2746 325.75 54.7814" stroke="#606060"/>
<path opacity="0.157895" d="M121.177 182.983C129.899 192.815 152.818 208.298 174.716 191.579C202.089 170.679 200.636 123.894 222.504 97.002C238.644 77.154 288.411 44.3888 330.631 69.2813" stroke="#606060"/>
<path opacity="0.210526" d="M108.728 162.642C116.898 173.331 139.238 191.506 163.233 178.698C193.227 162.687 195.665 117.677 220.485 95.1239C238.803 78.4782 292.896 54.3788 334.354 84.3843" stroke="#606060"/>
<path opacity="0.263158" d="M97.5063 141.853C105.035 153.282 126.55 173.95 152.379 165.192C184.666 154.246 190.968 111.504 218.467 93.5372C238.764 80.2762 296.59 65.1066 336.831 99.8962" stroke="#606060"/>
<path opacity="0.315789" d="M87.585 120.81C94.3895 132.853 114.844 155.787 142.225 151.177C176.451 145.414 186.547 105.41 216.425 92.2253C238.478 82.4941 299.404 76.4205 337.987 115.613" stroke="#606060"/>
<path opacity="0.368421" d="M79.0312 99.7177C85.037 112.244 104.207 137.193 132.839 136.78C168.629 136.265 182.409 99.4358 214.339 91.1783C237.906 85.0837 301.264 88.1727 337.766 131.339" stroke="#606060"/>
<path opacity="0.421053" d="M71.8917 78.7786C77.0331 91.6503 94.7083 118.341 124.278 122.131C161.24 126.868 178.553 93.6177 212.185 90.3778C237.008 87.9865 302.104 100.204 336.125 146.871" stroke="#606060"/>
<path opacity="0.473684" d="M66.1904 58.1889C70.411 71.2651 86.3981 99.4049 116.582 107.355C154.311 117.293 174.967 87.9864 209.932 89.7995C235.739 91.1377 301.86 112.35 333.028 162.007" stroke="#606060"/>
<path opacity="0.526316" d="M61.9545 38.1492C65.2081 51.2866 79.3318 80.5674 109.798 92.5913C147.881 107.621 171.655 82.5786 207.569 89.4249C234.077 94.478 300.499 124.453 328.472 176.555" stroke="#606060"/>
<path opacity="0.578947" d="M59.1777 18.8453C61.4286 31.9 73.5343 62.0008 103.95 77.9666C141.969 97.9238 168.599 77.4198 205.071 89.2243C231.989 97.9369 297.983 136.346 322.455 190.322" stroke="#606060"/>
<path opacity="0.631579" d="M57.8435 0.4613C59.0671 13.2903 69.0221 43.8814 99.0535 63.6141C136.593 88.2799 165.788 72.5392 202.416 89.1726C229.45 101.449 294.294 147.871 314.997 203.131" stroke="#606060"/>
<path opacity="0.684211" d="M57.9202 -16.8308C58.1031 -4.36809 65.7983 26.3781 95.1166 49.6615C131.765 78.7658 163.204 67.9609 199.588 89.2408C226.442 104.947 289.425 158.874 306.132 214.811" stroke="#606060"/>
<path opacity="0.736842" d="M59.3646 -32.8704C58.5047 -20.9105 63.8559 9.65394 92.1398 36.233C127.495 69.4568 160.835 63.7059 196.576 89.3993C222.956 108.363 283.388 169.203 295.915 225.206" stroke="#606060"/>
<path opacity="0.789474" d="M62.1083 -47.5121C60.2151 -36.1861 63.1636 -6.13828 90.1033 23.4452C123.778 60.4245 158.653 59.7908 193.36 89.6161C218.976 111.629 276.195 178.717 284.406 234.171" stroke="#606060"/>
<path opacity="0.842105" d="M66.0784 -60.6254C63.1725 -50.0574 63.686 -20.8553 88.9864 11.4084C120.612 51.7381 156.64 56.2284 189.932 89.8589C214.504 114.681 267.883 187.281 271.687 241.578" stroke="#606060"/>
<path opacity="0.894737" d="M71.1896 -72.0966C67.303 -62.4023 65.3758 -34.366 88.7596 0.224551C117.989 43.4628 154.776 53.0279 186.288 90.0951C209.547 117.453 258.501 194.77 257.857 247.316" stroke="#606060"/>
<path opacity="0.947368" d="M77.3295 -81.8262C72.5047 -73.1118 68.1581 -46.5485 89.369 -10.0101C115.883 35.6629 153.025 50.1982 182.412 90.2959C204.102 119.891 248.096 201.077 243.011 251.297" stroke="#606060"/>
<path d="M84.3877 -89.7401C78.6777 -82.1012 71.9591 -57.3018 90.7649 -19.2159C114.272 28.3915 151.363 47.7375 178.303 90.4266C198.187 121.934 236.738 206.101 227.267 253.443" stroke="#606060"/>
</svg>
