<svg width="306" height="715" viewBox="0 0 306 715" fill="none" xmlns="http://www.w3.org/2000/svg">
<path opacity="0.0526316" d="M264.43 126.906C252.322 110.909 224.508 87.146 210.11 120.063C192.112 161.208 211.575 243.56 201.137 294.425C193.433 331.968 158.689 397.54 108.853 360.172" stroke="#606060"/>
<path opacity="0.105263" d="M284.306 162.634C272.393 145.039 244.091 116.434 226.184 142.774C203.8 175.699 218.871 255.522 203.944 299.189C192.927 331.418 150.714 382.368 99.629 335.857" stroke="#606060"/>
<path opacity="0.157895" d="M303.186 199.342C291.599 180.341 263.118 147.209 241.899 166.684C215.374 191.027 225.888 267.446 206.636 303.436C192.427 329.999 143.207 365.769 91.4327 310.624" stroke="#606060"/>
<path opacity="0.210526" d="M320.923 236.695C309.788 216.497 281.442 179.199 257.142 191.596C226.767 207.091 232.609 279.27 209.243 307.188C191.997 327.794 136.31 347.991 84.4129 284.817" stroke="#606060"/>
<path opacity="0.263158" d="M337.379 274.349C326.818 253.174 298.917 212.121 271.803 217.303C237.91 223.78 239.016 290.927 211.792 310.468C191.699 324.891 130.154 329.294 78.7033 258.783" stroke="#606060"/>
<path opacity="0.315789" d="M352.434 311.96C342.563 290.041 315.412 245.681 285.781 243.592C248.743 240.98 245.1 302.36 214.316 313.31C191.596 321.392 124.868 309.953 74.4272 232.877" stroke="#606060"/>
<path opacity="0.368421" d="M365.975 349.172C356.901 326.749 330.799 279.568 298.976 270.231C259.197 258.559 250.846 313.499 216.839 315.738C191.74 317.39 120.56 290.235 71.6825 207.438" stroke="#606060"/>
<path opacity="0.421053" d="M377.913 385.642C369.737 362.961 344.968 313.477 311.301 296.993C269.218 276.389 256.25 324.288 219.394 317.79C192.191 312.995 117.339 270.42 70.5594 182.811" stroke="#606060"/>
<path opacity="0.473684" d="M388.178 421.041C380.989 398.35 357.826 347.105 322.685 323.656C278.757 294.345 261.315 334.677 222.012 319.515C193.004 308.324 115.3 250.797 71.1313 159.335" stroke="#606060"/>
<path opacity="0.526316" d="M396.708 455.037C390.585 432.584 369.281 380.139 333.05 349.982C287.761 312.286 266.034 344.61 224.716 320.949C194.221 303.486 114.515 231.636 73.4415 137.323" stroke="#606060"/>
<path opacity="0.578947" d="M403.474 487.329C398.484 465.361 379.272 412.291 342.348 375.755C296.193 330.087 270.42 354.048 227.54 322.148C195.891 298.604 115.058 213.219 77.5288 117.088" stroke="#606060"/>
<path opacity="0.631579" d="M408.455 517.624C404.652 496.381 387.744 443.267 350.532 400.754C304.016 347.613 274.48 362.949 230.507 323.159C198.051 293.792 116.976 195.808 83.4029 98.9114" stroke="#606060"/>
<path opacity="0.684211" d="M411.656 545.654C409.083 525.369 394.663 472.792 357.569 424.768C311.203 364.737 278.228 371.28 233.643 324.037C200.736 289.167 120.308 179.657 91.0581 83.058" stroke="#606060"/>
<path opacity="0.736842" d="M413.098 571.174C411.782 552.069 400.008 500.607 363.441 447.597C317.732 381.333 281.678 379.012 236.971 324.832C203.973 284.844 125.072 165.007 100.467 69.7634" stroke="#606060"/>
<path opacity="0.789474" d="M412.825 593.973C412.781 576.258 403.783 526.474 368.142 469.058C323.591 397.289 284.854 386.128 240.513 325.606C207.787 280.936 131.278 152.086 111.586 59.2408" stroke="#606060"/>
<path opacity="0.842105" d="M410.893 613.861C412.122 597.729 405.997 550.169 371.673 488.977C328.768 412.488 287.772 392.61 244.285 326.408C212.187 277.546 138.909 141.095 124.347 51.6661" stroke="#606060"/>
<path opacity="0.894737" d="M407.38 630.688C409.867 616.317 406.683 571.501 374.053 507.204C333.264 426.832 290.458 398.456 248.3 327.3C217.184 274.781 147.938 132.223 138.665 47.1901" stroke="#606060"/>
<path opacity="0.947368" d="M402.39 644.329C406.108 631.876 405.901 590.295 375.321 523.597C337.095 440.224 292.948 403.659 252.581 328.328C222.787 272.729 158.334 125.626 154.451 45.9204" stroke="#606060"/>
<path d="M396.029 654.703C400.939 644.304 403.71 606.414 375.515 538.046C340.271 452.585 295.267 408.233 257.134 329.553C228.988 271.481 170.033 121.445 171.584 47.9403" stroke="#606060"/>
</svg>
