<svg width="242" height="349" viewBox="0 0 242 349" fill="none" xmlns="http://www.w3.org/2000/svg">
<g opacity="0.4">
<path opacity="0.0526316" d="M54.0223 292.494C57.7037 305.54 75.429 331.85 116.879 332.722C168.691 333.812 203.199 296.875 252.523 289.896C288.927 284.745 379.058 290.756 414.535 336.427" stroke="#C0321C" stroke-width="2.71956"/>
<path opacity="0.105263" d="M54.7353 268.41C57.0329 281.769 71.911 309.787 113.043 314.987C164.457 321.488 202.637 288.36 252.42 286.575C289.163 285.257 378.172 300.657 408.681 349.786" stroke="#C0321C" stroke-width="2.71956"/>
<path opacity="0.157895" d="M57.3907 244.749C58.2793 258.276 70.1471 287.696 110.51 297.167C160.963 309.006 202.397 280.05 252.094 283.479C288.774 286.009 375.685 310.628 400.891 362.677" stroke="#C0321C" stroke-width="2.71956"/>
<path opacity="0.210526" d="M61.9337 221.714C61.4035 235.258 70.1312 265.758 109.283 279.396C158.222 296.444 202.456 271.978 251.522 280.583C287.736 286.933 371.598 320.502 391.225 374.901" stroke="#C0321C" stroke-width="2.71956"/>
<path opacity="0.263158" d="M68.2886 199.496C66.3456 212.911 71.8373 244.156 109.349 261.812C156.238 283.882 202.787 264.174 250.685 277.86C286.037 287.961 365.93 330.112 379.764 386.265" stroke="#C0321C" stroke-width="2.71956"/>
<path opacity="0.315789" d="M76.3601 178.282C73.0254 191.42 75.2211 223.068 110.682 244.548C155.007 271.399 203.361 256.664 249.566 275.282C283.668 289.023 358.718 339.294 366.606 396.585" stroke="#C0321C" stroke-width="2.71956"/>
<path opacity="0.368421" d="M86.0337 158.244C81.3439 170.962 80.2195 202.666 113.241 227.735C154.517 259.072 204.145 249.473 248.151 272.818C280.631 290.048 350.015 347.889 351.871 405.691" stroke="#C0321C" stroke-width="2.71956"/>
<path opacity="0.421053" d="M97.1778 139.545C91.1843 151.703 86.7521 183.116 116.972 211.5C154.746 246.979 205.107 242.62 246.431 270.437C276.932 290.968 339.889 355.745 335.694 413.424" stroke="#C0321C" stroke-width="2.71956"/>
<path opacity="0.473684" d="M109.644 122.331C102.413 133.796 94.7214 164.573 121.809 195.96C155.668 235.194 206.208 236.122 244.398 268.107C272.585 291.714 328.427 362.716 318.226 419.641" stroke="#C0321C" stroke-width="2.71956"/>
<path opacity="0.526316" d="M123.271 106.731C114.881 117.377 104.014 147.182 127.672 181.228C157.245 223.786 207.411 229.993 242.049 265.794C267.614 292.218 315.728 368.669 299.632 424.215" stroke="#C0321C" stroke-width="2.71956"/>
<path opacity="0.578947" d="M137.883 92.8576C128.426 102.569 114.503 131.074 134.473 167.407C159.435 212.823 208.677 224.239 239.383 263.465C262.047 292.417 301.906 373.478 280.092 427.037" stroke="#C0321C" stroke-width="2.71956"/>
<path opacity="0.631579" d="M153.293 80.8057C142.873 89.4751 126.047 116.369 142.11 154.59C162.187 202.367 209.967 218.868 236.404 261.088C255.917 292.25 287.085 377.034 259.792 428.02" stroke="#C0321C" stroke-width="2.71956"/>
<path opacity="0.684211" d="M169.308 70.6475C158.039 78.1801 138.494 103.168 150.473 142.859C165.447 192.472 211.24 213.877 233.119 258.63C249.268 291.661 271.403 379.238 238.93 427.091" stroke="#C0321C" stroke-width="2.71956"/>
<path opacity="0.736842" d="M185.726 62.436C173.731 68.7494 151.682 91.5575 159.446 132.283C169.152 183.19 212.457 209.264 229.538 256.059C242.146 290.597 255.005 380.008 217.708 424.205" stroke="#C0321C" stroke-width="2.71956"/>
<path opacity="0.789474" d="M202.341 56.2033C189.752 61.2283 165.439 81.6066 168.904 122.921C173.236 174.563 213.578 205.021 225.674 253.345C234.603 289.011 238.045 379.277 196.333 419.333" stroke="#C0321C" stroke-width="2.71956"/>
<path opacity="0.842105" d="M218.946 51.9588C205.9 55.6402 179.591 73.3655 178.718 114.816C177.628 166.628 214.565 201.136 221.544 250.459C226.696 286.864 220.684 376.995 175.013 412.471" stroke="#C0321C" stroke-width="2.71956"/>
<path opacity="0.894737" d="M235.333 49.6905C221.973 51.9881 193.955 66.8662 188.755 107.998C182.255 159.413 215.382 197.593 217.168 247.375C218.485 284.119 203.086 373.127 153.956 403.636" stroke="#C0321C" stroke-width="2.71956"/>
<path opacity="0.947368" d="M251.295 49.3644C237.769 50.253 208.349 62.1209 198.878 102.484C187.039 152.937 215.994 194.371 212.566 244.068C210.036 280.747 185.417 367.659 133.367 392.865" stroke="#C0321C" stroke-width="2.71956"/>
<path d="M266.633 50.9261C253.088 50.396 222.589 59.1236 208.951 98.2753C191.903 147.215 216.369 191.448 207.764 240.514C201.414 276.729 167.845 360.591 113.446 380.218" stroke="#C0321C" stroke-width="2.71956"/>
</g>
</svg>
