<svg width="190" height="202" viewBox="0 0 190 202" fill="none" xmlns="http://www.w3.org/2000/svg">
<g opacity="0.4">
<path opacity="0.0344828" d="M-5.04175 -73.5661C-3.53129 -73.8324 -1.86295 -73.4494 -0.0227872 -72.3231C1.82454 -71.1924 3.78857 -69.3442 5.83052 -66.7952C9.91377 -61.6979 14.1774 -53.9648 18.3592 -44.1305C26.7163 -24.4771 34.6597 3.35977 40.1885 34.7151C45.7173 66.0704 47.7737 94.9453 46.6424 116.272C46.0764 126.943 44.7147 135.668 42.6211 141.855C41.5741 144.948 40.3607 147.357 39.0115 149.051C37.6675 150.739 36.2308 151.669 34.7203 151.936C33.2098 152.202 31.5415 151.819 29.7013 150.693C27.854 149.562 25.89 147.714 23.848 145.165C19.7648 140.068 15.5011 132.334 11.3194 122.5C2.96226 102.847 -4.98114 75.0099 -10.5099 43.6546C-16.0387 12.2993 -18.0951 -16.5756 -16.9639 -37.9021C-16.3978 -48.5736 -15.0362 -57.2986 -12.9426 -63.485C-11.8956 -66.5787 -10.6821 -68.9871 -9.3329 -70.6815C-7.98894 -72.3692 -6.55221 -73.2997 -5.04175 -73.5661Z" stroke="#C0321C" stroke-width="2"/>
<path opacity="0.0689655" d="M5.45326 -75.5757C6.98119 -75.7093 8.6098 -75.1824 10.3448 -73.8999C12.0865 -72.6125 13.882 -70.6003 15.694 -67.883C19.3175 -62.4492 22.8909 -54.3739 26.1997 -44.2126C32.8121 -23.9056 38.2991 4.51768 41.0741 36.2356C43.849 67.9534 43.381 96.8977 40.3953 118.044C38.9013 128.626 36.7845 137.199 34.1596 143.179C32.847 146.17 31.4282 148.464 29.9365 150.034C28.4505 151.598 26.9382 152.4 25.4102 152.534C23.8823 152.667 22.2537 152.14 20.5187 150.858C18.777 149.57 16.9815 147.558 15.1695 144.841C11.546 139.407 7.97257 131.332 4.66383 121.171C-1.94858 100.864 -7.43561 72.4403 -10.2106 40.7224C-12.9855 9.00451 -12.5175 -19.9397 -9.53183 -41.0865C-8.03784 -51.668 -5.92095 -60.2411 -3.29611 -66.2215C-1.98348 -69.2122 -0.564701 -71.5057 0.92703 -73.076C2.41298 -74.6402 3.92534 -75.442 5.45326 -75.5757Z" stroke="#C0321C" stroke-width="2"/>
<path opacity="0.103448" d="M16.0246 -76.7179C17.5583 -76.7179 19.1348 -76.051 20.7514 -74.6222C22.3743 -73.1879 23.9876 -71.0268 25.5559 -68.1619C28.692 -62.433 31.548 -54.077 33.9586 -43.666C38.7759 -22.8599 41.7648 5.93338 41.7648 37.7724C41.7648 69.6114 38.7759 98.4048 33.9586 119.211C31.548 129.622 28.692 137.978 25.5559 143.707C23.9876 146.572 22.3744 148.733 20.7514 150.167C19.1348 151.596 17.5583 152.263 16.0246 152.263C14.4908 152.263 12.9143 151.596 11.2977 150.167C9.67478 148.733 8.06151 146.572 6.49322 143.707C3.35714 137.978 0.501107 129.622 -1.90943 119.211C-6.7268 98.4048 -9.7157 69.6114 -9.7157 37.7724C-9.7157 5.93338 -6.72681 -22.8599 -1.90944 -43.666C0.501099 -54.077 3.35713 -62.433 6.49321 -68.1619C8.0615 -71.0268 9.67477 -73.1879 11.2977 -74.6222C12.9143 -76.051 14.4908 -76.7179 16.0246 -76.7179Z" stroke="#C0321C" stroke-width="2"/>
<path opacity="0.137931" d="M26.5957 -76.9887C28.1236 -76.8551 29.636 -76.0533 31.122 -74.4891C32.6137 -72.9188 34.0325 -70.6253 35.3451 -67.6346C37.9699 -61.6542 40.0868 -53.0811 41.5808 -42.4996C44.5665 -21.3528 45.0345 7.59142 42.2596 39.3093C39.4846 71.0272 33.9976 99.4504 27.3852 119.757C24.0764 129.919 20.503 137.994 16.8795 143.428C15.0675 146.145 13.272 148.157 11.5303 149.445C9.79529 150.727 8.16668 151.254 6.63875 151.121C5.11083 150.987 3.59847 150.185 2.11252 148.621C0.620787 147.051 -0.797991 144.757 -2.11062 141.766C-4.73547 135.786 -6.85235 127.213 -8.34634 116.631C-11.332 95.4846 -11.8 66.5403 -9.02508 34.8225C-6.25013 3.1046 -0.763098 -25.3187 5.8493 -45.6257C9.15805 -55.787 12.7315 -63.8623 16.3549 -69.296C18.167 -72.0133 19.9624 -74.0256 21.7042 -75.313C23.4392 -76.5954 25.0678 -77.1224 26.5957 -76.9887Z" stroke="#C0321C" stroke-width="2"/>
<path opacity="0.172414" d="M37.0909 -76.3911C38.6013 -76.1248 40.0381 -75.1942 41.382 -73.5065C42.7312 -71.8121 43.9447 -69.4037 44.9917 -66.31C47.0853 -60.1236 48.447 -51.3986 49.013 -40.7271C50.1443 -19.4007 48.0879 9.47425 42.5591 40.8296C37.0303 72.1849 29.0869 100.022 20.7298 119.675C16.548 129.509 12.2844 137.243 8.20111 142.34C6.15916 144.889 4.19512 146.737 2.3478 147.868C0.507634 148.994 -1.1607 149.377 -2.67117 149.111C-4.18163 148.844 -5.61835 147.914 -6.96232 146.226C-8.31151 144.532 -9.525 142.123 -10.572 139.03C-12.6656 132.843 -14.0272 124.118 -14.5933 113.447C-15.7246 92.1203 -13.6681 63.2454 -8.13935 31.8901C-2.61056 0.534748 5.33283 -27.3021 13.6899 -46.9555C17.8717 -56.7898 22.1354 -64.5229 26.2186 -69.6202C28.2606 -72.1693 30.2246 -74.0174 32.0719 -75.1481C33.9121 -76.2744 35.5804 -76.6574 37.0909 -76.3911Z" stroke="#C0321C" stroke-width="2"/>
<path opacity="0.206897" d="M47.4349 -74.9357C48.9164 -74.5387 50.2665 -73.4865 51.4583 -71.688C52.6547 -69.8826 53.6536 -67.3775 54.427 -64.2044C55.9735 -57.859 56.5695 -49.0485 56.2033 -38.3683C55.4715 -17.0244 50.9063 11.5614 42.6658 42.3155C34.4252 73.0696 24.0859 100.108 14.0477 118.959C9.02473 128.391 4.10332 135.723 -0.408649 140.445C-2.66499 142.806 -4.78263 144.476 -6.72147 145.442C-8.6528 146.403 -10.3482 146.64 -11.8297 146.243C-13.3112 145.846 -14.6613 144.793 -15.8531 142.995C-17.0495 141.189 -18.0484 138.684 -18.8218 135.511C-20.3683 129.166 -20.9643 120.355 -20.5981 109.675C-19.8663 88.3313 -15.3011 59.7455 -7.06059 28.9914C1.17996 -1.76277 11.5193 -28.8014 21.5575 -47.6517C26.5805 -57.0841 31.5019 -64.4161 36.0138 -69.1381C38.2702 -71.4995 40.3878 -73.1694 42.3267 -74.1348C44.258 -75.0965 45.9534 -75.3327 47.4349 -74.9357Z" stroke="#C0321C" stroke-width="2"/>
<path opacity="0.241379" d="M57.5534 -72.6387C58.9947 -72.1141 60.248 -70.9482 61.2785 -69.0527C62.313 -67.1498 63.0898 -64.5673 63.5837 -61.3388C64.5712 -54.8828 64.3971 -46.0539 63.1015 -35.4463C60.5122 -14.2473 53.473 13.8318 42.5834 43.7507C31.6938 73.6696 19.0373 99.7042 7.39432 117.608C1.56838 126.567 -3.97332 133.442 -8.87968 137.753C-11.3332 139.908 -13.5884 141.387 -15.604 142.18C-17.6118 142.97 -19.3213 143.057 -20.7625 142.533C-22.2038 142.008 -23.4571 140.842 -24.4876 138.947C-25.5221 137.044 -26.2989 134.461 -26.7927 131.233C-27.7803 124.777 -27.6062 115.948 -26.3106 105.34C-23.7213 84.1413 -16.6821 56.0622 -5.79249 26.1433C5.0971 -3.77559 17.7536 -29.8102 29.3966 -47.7138C35.2225 -56.6726 40.7642 -63.5478 45.6706 -67.8586C48.1241 -70.0143 50.3793 -71.4933 52.3949 -72.2861C54.4027 -73.0758 56.1122 -73.1633 57.5534 -72.6387Z" stroke="#C0321C" stroke-width="2"/>
<path opacity="0.275862" d="M67.3735 -69.5224C68.7635 -68.8742 69.9105 -67.6035 70.7718 -65.6254C71.6365 -63.6396 72.1853 -60.9992 72.3959 -57.7399C72.817 -51.2224 71.8741 -42.4423 69.6589 -31.988C65.2319 -11.0954 55.7722 16.2634 42.3164 45.1193C28.8606 73.9753 13.9832 98.8077 0.824161 115.629C-5.76041 124.045 -11.8803 130.411 -17.1436 134.278C-19.7758 136.212 -22.1512 137.489 -24.2282 138.103C-26.2972 138.715 -28.0078 138.653 -29.3979 138.004C-30.788 137.356 -31.9349 136.086 -32.7962 134.108C-33.6609 132.122 -34.2097 129.481 -34.4203 126.222C-34.8414 119.704 -33.8985 110.924 -31.6833 100.47C-27.2563 79.5775 -17.7966 52.2187 -4.34081 23.3627C9.11494 -5.49323 23.9924 -30.3257 37.1514 -47.1464C43.736 -55.5633 49.8558 -61.9294 55.1192 -65.7962C57.7513 -67.7299 60.1268 -69.0067 62.2038 -69.6208C64.2728 -70.2324 65.9834 -70.1706 67.3735 -69.5224Z" stroke="#C0321C" stroke-width="2"/>
<path opacity="0.310345" d="M76.8255 -65.6168C78.1538 -64.8499 79.1856 -63.4841 79.8713 -61.4384C80.5596 -59.3848 80.8762 -56.7066 80.8019 -53.4414C80.6534 -46.912 78.9488 -38.2475 75.8309 -28.026C69.5998 -7.59874 57.7916 18.8315 41.8721 46.4049C25.9526 73.9783 8.96747 97.4196 -5.60752 113.029C-12.9006 120.84 -19.552 126.649 -25.1324 130.042C-27.923 131.739 -30.4007 132.804 -32.5233 133.235C-34.6378 133.664 -36.3365 133.453 -37.6648 132.686C-38.993 131.919 -40.0249 130.554 -40.7105 128.508C-41.3989 126.454 -41.7154 123.776 -41.6412 120.511C-41.4926 113.981 -39.788 105.317 -36.6701 95.0955C-30.4391 74.6682 -18.6309 48.238 -2.71134 20.6646C13.2082 -6.90881 30.1933 -30.3501 44.7683 -45.96C52.0614 -53.7709 58.7128 -59.5794 64.2931 -62.9728C67.0838 -64.6697 69.5615 -65.7346 71.6841 -66.1653C73.7985 -66.5943 75.4972 -66.3837 76.8255 -65.6168Z" stroke="#C0321C" stroke-width="2"/>
<path opacity="0.344828" d="M85.8421 -60.9568C87.0985 -60.077 88.0074 -58.6265 88.5121 -56.5289C89.0189 -54.4231 89.1008 -51.7275 88.7423 -48.4812C88.0252 -41.9895 85.5719 -33.5065 81.575 -23.5957C73.5873 -3.78926 59.5205 21.5112 41.2584 47.5922C22.9963 73.6732 4.03276 95.545 -11.8473 109.825C-19.7934 116.971 -26.9257 122.177 -32.7806 125.071C-35.7085 126.519 -38.2696 127.364 -40.4217 127.608C-42.5654 127.851 -44.2393 127.493 -45.4957 126.613C-46.7521 125.733 -47.661 124.283 -48.1657 122.185C-48.6724 120.079 -48.7544 117.384 -48.3958 114.138C-47.6788 107.646 -45.2255 99.163 -41.2286 89.2521C-33.2409 69.4457 -19.1741 44.1452 -0.911978 18.0642C17.3501 -8.01681 36.3137 -29.8886 52.1937 -44.1687C60.1398 -51.3143 67.2721 -56.521 73.127 -59.4151C76.0549 -60.8623 78.616 -61.7073 80.7681 -61.9513C82.9119 -62.1944 84.5858 -61.8365 85.8421 -60.9568Z" stroke="#C0321C" stroke-width="2"/>
<path opacity="0.37931" d="M94.359 -55.583C95.534 -54.5971 96.3129 -53.0729 96.633 -50.9392C96.9542 -48.7973 96.8009 -46.1048 96.1608 -42.9021C94.8807 -36.4977 91.6974 -28.2608 86.8519 -18.736C77.1684 0.298893 60.95 24.2771 40.4843 48.6672C20.0186 73.0573 -0.779066 93.193 -17.8433 106.035C-26.3819 112.461 -33.9409 117.026 -40.0257 119.399C-43.0686 120.585 -45.6936 121.204 -47.8588 121.259C-50.0156 121.315 -51.6519 120.812 -52.8268 119.826C-54.0018 118.84 -54.7807 117.316 -55.1008 115.183C-55.422 113.041 -55.2687 110.348 -54.6286 107.145C-53.3485 100.741 -50.1652 92.5041 -45.3197 82.9794C-35.6362 63.9444 -19.4178 39.9663 1.04791 15.5761C21.5136 -8.81396 42.3113 -28.9497 59.3754 -41.7915C67.9141 -48.2174 75.4731 -52.7826 81.5579 -55.1554C84.6008 -56.3419 87.2258 -56.9604 89.391 -57.016C91.5478 -57.0713 93.1841 -56.5689 94.359 -55.583Z" stroke="#C0321C" stroke-width="2"/>
<path opacity="0.413793" d="M102.316 -49.5417C103.4 -48.4572 104.043 -46.8709 104.176 -44.7174C104.31 -42.5557 103.922 -39.8868 103.005 -36.752C101.172 -30.4835 97.283 -22.5554 91.6258 -13.4892C80.3201 4.62926 62.0736 27.1027 39.56 49.6163C17.0465 72.1299 -5.42697 90.3763 -23.5455 101.682C-32.6117 107.339 -40.5398 111.228 -46.8083 113.062C-49.943 113.979 -52.6119 114.366 -54.7737 114.233C-56.9271 114.1 -58.5134 113.457 -59.5979 112.372C-60.6825 111.287 -61.3256 109.701 -61.4585 107.548C-61.5918 105.386 -61.2045 102.717 -60.2876 99.5823C-58.4542 93.3139 -54.5652 85.3858 -48.908 76.3195C-37.6023 58.2011 -19.3558 35.7276 3.15781 13.214C25.6714 -9.29955 48.1448 -27.546 66.2633 -38.8517C75.3295 -44.5089 83.2576 -48.398 89.5261 -50.2314C92.6609 -51.1482 95.3297 -51.5356 97.4915 -51.4022C99.6449 -51.2694 101.231 -50.6262 102.316 -49.5417Z" stroke="#C0321C" stroke-width="2"/>
<path opacity="0.448276" d="M109.656 -42.8842C110.642 -41.7093 111.145 -40.073 111.089 -37.9162C111.034 -35.751 110.415 -33.126 109.229 -30.0831C106.856 -23.9983 102.291 -16.4393 95.8649 -7.90065C83.0231 9.16354 62.8874 29.9612 38.4973 50.4269C14.1071 70.8926 -9.87105 87.111 -28.906 96.7945C-38.4307 101.64 -46.6676 104.823 -53.072 106.103C-56.2748 106.744 -58.9672 106.897 -61.1092 106.576C-63.2428 106.256 -64.767 105.477 -65.7529 104.302C-66.7388 103.127 -67.2413 101.49 -67.1859 99.3336C-67.1304 97.1684 -66.5119 94.5434 -65.3253 91.5005C-62.9525 85.4157 -58.3873 77.8567 -51.9615 69.3181C-39.1196 52.2539 -18.9839 31.4563 5.4062 10.9905C29.7963 -9.47521 53.7745 -25.6936 72.8094 -35.3771C82.3342 -40.2226 90.5711 -43.4059 96.9755 -44.686C100.178 -45.3261 102.871 -45.4794 105.013 -45.1582C107.146 -44.8381 108.67 -44.0592 109.656 -42.8842Z" stroke="#C0321C" stroke-width="2"/>
<path opacity="0.482759" d="M116.329 -35.6663C117.209 -34.4099 117.567 -32.736 117.324 -30.5922C117.08 -28.4401 116.235 -25.8791 114.787 -22.9512C111.893 -17.0963 106.687 -9.96394 99.5411 -2.01782C85.2609 13.8622 63.3891 32.8257 37.3081 51.0878C11.2271 69.35 -14.0734 83.4168 -33.8798 91.4045C-43.7906 95.4014 -52.2736 97.8547 -58.7652 98.5717C-62.0116 98.9303 -64.7072 98.8483 -66.813 98.3416C-68.9106 97.8368 -70.3611 96.928 -71.2408 95.6716C-72.1206 94.4152 -72.4785 92.7413 -72.2354 90.5975C-71.9914 88.4454 -71.1464 85.8844 -69.6992 82.9565C-66.8051 77.1016 -61.5984 69.9692 -54.4528 62.0231C-40.1726 46.1431 -18.3009 27.1796 7.7801 8.91746C33.8611 -9.34465 59.1616 -23.4115 78.968 -31.3992C88.8789 -35.3961 97.3618 -37.8494 103.853 -38.5664C107.1 -38.925 109.795 -38.843 111.901 -38.3363C113.999 -37.8315 115.449 -36.9227 116.329 -35.6663Z" stroke="#C0321C" stroke-width="2"/>
<path opacity="0.517241" d="M122.288 -27.949C123.055 -26.6207 123.266 -24.922 122.837 -22.8076C122.406 -20.6849 121.341 -18.2073 119.644 -15.4166C116.251 -9.83624 110.443 -3.18485 102.632 4.10825C87.0218 18.6832 63.5805 35.6684 36.0071 51.5879C8.43365 67.5074 -17.9965 79.3156 -38.4238 85.5466C-48.6453 88.6646 -57.3098 90.3692 -63.8392 90.5177C-67.1044 90.592 -69.7826 90.2754 -71.8362 89.5871C-73.8819 88.9014 -75.2477 87.8696 -76.0146 86.5413C-76.7815 85.213 -76.9921 83.5143 -76.5631 81.3999C-76.1324 79.2772 -75.0675 76.7996 -73.3706 74.0089C-69.9772 68.4285 -64.1687 61.7772 -56.3578 54.4841C-40.7479 39.9091 -17.3066 22.9239 10.2668 7.00443C37.8402 -8.91509 64.2704 -20.7233 84.6976 -26.9543C94.9191 -30.0723 103.584 -31.7769 110.113 -31.9254C113.378 -31.9997 116.056 -31.6831 118.11 -30.9948C120.156 -30.3091 121.522 -29.2773 122.288 -27.949Z" stroke="#C0321C" stroke-width="2"/>
<path opacity="0.551724" d="M127.493 -19.7958C128.141 -18.4057 128.203 -16.6951 127.591 -14.6261C126.977 -12.5491 125.7 -10.1736 123.767 -7.54152C119.9 -2.27812 113.534 3.84172 105.117 10.4263C88.2962 23.5853 63.4637 38.4628 34.6078 51.9185C5.75181 65.3743 -21.607 74.834 -42.4996 79.261C-52.9539 81.4762 -61.734 82.4192 -68.2515 81.998C-71.5108 81.7874 -74.1512 81.2387 -76.137 80.374C-78.1151 79.5126 -79.3858 78.3657 -80.034 76.9756C-80.6822 75.5856 -80.744 73.8749 -80.1323 71.806C-79.5183 69.7289 -78.2414 67.3535 -76.3078 64.7214C-72.441 59.458 -66.0749 53.3381 -57.658 46.7536C-40.8373 33.5945 -16.0048 18.7171 12.8512 5.26133C41.7071 -8.19443 69.0659 -17.6541 89.9585 -22.0811C100.413 -24.2963 109.193 -25.2393 115.71 -24.8182C118.97 -24.6076 121.61 -24.0588 123.596 -23.1941C125.574 -22.3328 126.845 -21.1858 127.493 -19.7958Z" stroke="#C0321C" stroke-width="2"/>
<path opacity="0.586207" d="M131.908 -11.2745C132.432 -9.83324 132.345 -8.12374 131.555 -6.11594C130.763 -4.10034 129.284 -1.84522 127.128 0.608344C122.817 5.5147 115.942 11.0564 106.983 16.8824C89.0794 28.5253 63.0448 41.1818 33.1259 52.0714C3.20699 62.961 -24.8721 70.0003 -46.0711 72.5895C-56.6787 73.8851 -65.5076 74.0592 -71.9636 73.0717C-75.1921 72.5778 -77.7746 71.801 -79.6775 70.7665C-81.573 69.736 -82.7389 68.4827 -83.2635 67.0415C-83.7881 65.6002 -83.7006 63.8907 -82.9109 61.8829C-82.1181 59.8673 -80.6391 57.6122 -78.4834 55.1586C-74.1726 50.2523 -67.2974 44.7106 -58.3386 38.8846C-40.435 27.2417 -14.4004 14.5851 15.5185 3.69555C45.4374 -7.19404 73.5165 -14.2333 94.7155 -16.8225C105.323 -18.1181 114.152 -18.2923 120.608 -17.3047C123.836 -16.8109 126.419 -16.034 128.322 -14.9996C130.217 -13.9691 131.383 -12.7158 131.908 -11.2745Z" stroke="#C0321C" stroke-width="2"/>
<path opacity="0.62069" d="M135.504 -2.45499C135.901 -0.973489 135.665 0.721883 134.703 2.65321C133.738 4.59205 132.068 6.70969 129.706 8.96603C124.984 13.478 117.652 18.3994 108.22 23.4224C89.3696 33.4606 62.331 43.7999 31.5769 52.0405C0.822717 60.281 -27.7631 64.8462 -49.107 65.578C-59.7872 65.9442 -68.5976 65.3482 -74.943 63.8017C-78.1162 63.0283 -80.6212 62.0293 -82.4267 60.833C-84.2252 59.6412 -85.2774 58.2911 -85.6743 56.8096C-86.0713 55.3281 -85.8352 53.6327 -84.8735 51.7013C-83.9081 49.7625 -82.2382 47.6449 -79.8768 45.3885C-75.1548 40.8766 -67.8227 35.9552 -58.3903 30.9322C-39.5401 20.894 -12.5014 10.5546 18.2527 2.31409C49.0069 -5.92645 77.5926 -10.4917 98.9366 -11.2234C109.617 -11.5896 118.427 -10.9936 124.773 -9.44711C127.946 -8.67375 130.451 -7.67479 132.256 -6.4784C134.055 -5.28665 135.107 -3.93649 135.504 -2.45499Z" stroke="#C0321C" stroke-width="2"/>
<path opacity="0.655172" d="M138.259 6.58972C138.525 8.10018 138.142 9.76852 137.016 11.6087C135.885 13.456 134.037 15.42 131.488 17.462C126.391 21.5452 118.657 25.8089 108.823 29.9907C89.1697 38.3478 61.3329 46.2912 29.9775 51.82C-1.37778 57.3487 -30.2527 59.4052 -51.5792 58.2739C-62.2506 57.7079 -70.9756 56.3462 -77.162 54.2526C-80.2558 53.2056 -82.6642 51.9921 -84.3585 50.6429C-86.0463 49.299 -86.9768 47.8622 -87.2431 46.3518C-87.5095 44.8413 -87.1264 43.173 -86.0001 41.3328C-84.8694 39.4855 -83.0213 37.5215 -80.4722 35.4795C-75.375 31.3963 -67.6419 27.1326 -57.8076 22.9508C-38.1541 14.5937 -10.3173 6.65032 21.038 1.12154C52.3934 -4.40725 81.2683 -6.46367 102.595 -5.33242C113.266 -4.76636 121.991 -3.40472 128.178 -1.3111C131.271 -0.264116 133.68 0.949373 135.374 2.29857C137.062 3.64253 137.992 5.07926 138.259 6.58972Z" stroke="#C0321C" stroke-width="2"/>
<path opacity="0.689655" d="M140.155 15.786C140.289 17.314 139.762 18.9426 138.479 20.6776C137.192 22.4193 135.18 24.2148 132.462 26.0268C127.029 29.6503 118.953 33.2237 108.792 36.5324C88.4849 43.1448 60.0617 48.6319 28.3438 51.4068C-3.37408 54.1818 -32.3183 53.7138 -53.4651 50.7281C-64.0466 49.2341 -72.6197 47.1172 -78.6001 44.4924C-81.5908 43.1797 -83.8843 41.761 -85.4546 40.2692C-87.0188 38.7833 -87.8206 37.2709 -87.9542 35.743C-88.0879 34.2151 -87.561 32.5865 -86.2785 30.8515C-84.9911 29.1097 -82.9789 27.3142 -80.2615 25.5022C-74.8278 21.8788 -66.7525 18.3053 -56.5912 14.9966C-36.2842 8.38419 -7.86091 2.89716 23.857 0.122201C55.5748 -2.65275 84.5191 -2.18473 105.666 0.800939C116.247 2.29492 124.82 4.41181 130.801 7.03665C133.792 8.34928 136.085 9.76806 137.655 11.2598C139.22 12.7457 140.021 14.2581 140.155 15.786Z" stroke="#C0321C" stroke-width="2"/>
<path opacity="0.724138" d="M141.183 25.0581C141.183 26.5919 140.516 28.1684 139.088 29.785C137.653 31.4079 135.492 33.0212 132.627 34.5895C126.898 37.7256 118.542 40.5816 108.131 42.9921C87.3254 47.8095 58.5321 50.7984 26.693 50.7984C-5.14598 50.7984 -33.9393 47.8095 -54.7453 42.9921C-65.1564 40.5816 -73.5124 37.7256 -79.2413 34.5895C-82.1062 33.0212 -84.2673 31.4079 -85.7016 29.785C-87.1303 28.1684 -87.7972 26.5919 -87.7972 25.0581C-87.7972 23.5244 -87.1303 21.9479 -85.7016 20.3313C-84.2673 18.7084 -82.1062 17.0951 -79.2413 15.5268C-73.5124 12.3907 -65.1564 9.53468 -54.7453 7.12414C-33.9393 2.30677 -5.14598 -0.682133 26.693 -0.682134C58.5321 -0.682136 87.3254 2.30676 108.131 7.12413C118.542 9.53467 126.898 12.3907 132.627 15.5268C135.492 17.0951 137.653 18.7083 139.088 20.3313C140.516 21.9479 141.183 23.5244 141.183 25.0581Z" stroke="#C0321C" stroke-width="2"/>
<path opacity="0.758621" d="M141.341 34.3301C141.207 35.858 140.405 37.3704 138.841 38.8563C137.271 40.3481 134.977 41.7668 131.986 43.0795C126.006 45.7043 117.433 47.8212 106.851 49.3152C85.7046 52.3009 56.7604 52.7689 25.0425 49.9939C-6.67536 47.219 -35.0986 41.7319 -55.4056 35.1195C-65.5669 31.8108 -73.6422 28.2374 -79.076 24.6139C-81.7933 22.8019 -83.8056 21.0064 -85.093 19.2647C-86.3754 17.5297 -86.9024 15.9011 -86.7687 14.3731C-86.635 12.8452 -85.8333 11.3328 -84.269 9.84689C-82.6987 8.35516 -80.4053 6.93638 -77.4146 5.62375C-71.4341 2.99891 -62.861 0.882021 -52.2795 -0.611963C-31.1328 -3.59763 -2.18854 -4.06566 29.5293 -1.29071C61.2472 1.48425 89.6705 6.97128 109.977 13.5837C120.139 16.8924 128.214 20.4659 133.648 24.0893C136.365 25.9013 138.377 27.6968 139.665 29.4386C140.947 31.1736 141.474 32.8022 141.341 34.3301Z" stroke="#C0321C" stroke-width="2"/>
<path opacity="0.793103" d="M140.629 43.5263C140.363 45.0368 139.433 46.4735 137.745 47.8175C136.05 49.1667 133.642 50.3801 130.548 51.4271C124.362 53.5208 115.637 54.8824 104.965 55.4484C83.6389 56.5797 54.764 54.5233 23.4087 48.9945C-7.94661 43.4657 -35.7835 35.5223 -55.4369 27.1652C-65.2712 22.9834 -73.0043 18.7198 -78.1016 14.6365C-80.6506 12.5946 -82.4987 10.6305 -83.6295 8.78322C-84.7558 6.94306 -85.1388 5.27472 -84.8725 3.76426C-84.6061 2.2538 -83.6756 0.817073 -81.9878 -0.526891C-80.2935 -1.87609 -77.8851 -3.08957 -74.7914 -4.13655C-68.6049 -6.23018 -59.8799 -7.59182 -49.2085 -8.15788C-27.882 -9.28913 0.992892 -7.23272 32.3482 -1.70393C63.7035 3.82486 91.5404 11.7683 111.194 20.1254C121.028 24.3071 128.761 28.5708 133.858 32.654C136.408 34.696 138.256 36.66 139.386 38.5073C140.513 40.3475 140.896 42.0158 140.629 43.5263Z" stroke="#C0321C" stroke-width="2"/>
<path opacity="0.827586" d="M139.06 52.5712C138.663 54.0527 137.611 55.4029 135.813 56.5946C134.007 57.791 131.502 58.79 128.329 59.5633C121.984 61.1098 113.173 61.7058 102.493 61.3397C81.1491 60.6079 52.5633 56.0427 21.8091 47.8021C-8.94501 39.5616 -35.9836 29.2223 -54.8339 19.184C-64.2663 14.1611 -71.5984 9.23968 -76.3204 4.7277C-78.6818 2.47136 -80.3517 0.353725 -81.3171 -1.58512C-82.2787 -3.51645 -82.5149 -5.21182 -82.1179 -6.69332C-81.721 -8.17482 -80.6688 -9.52498 -78.8703 -10.7167C-77.0648 -11.9131 -74.5598 -12.9121 -71.3866 -13.6854C-65.0412 -15.2319 -56.2308 -15.8279 -45.5506 -15.4618C-24.2067 -14.73 4.37913 -10.1648 35.1333 -1.92424C65.8874 6.31631 92.926 16.6556 111.776 26.6938C121.209 31.7168 128.541 36.6382 133.263 41.1502C135.624 43.4065 137.294 45.5242 138.259 47.463C139.221 49.3943 139.457 51.0897 139.06 52.5712Z" stroke="#C0321C" stroke-width="2"/>
<path opacity="0.862069" d="M136.65 61.3906C136.125 62.8319 134.959 64.0852 133.064 65.1156C131.161 66.1501 128.578 66.927 125.35 67.4208C118.894 68.4084 110.065 68.2342 99.4571 66.9386C78.2582 64.3494 50.1791 57.3101 20.2602 46.4205C-9.65872 35.531 -35.6933 22.8744 -53.597 11.2315C-62.5557 5.40554 -69.4309 -0.136165 -73.7417 -5.04252C-75.8975 -7.49609 -77.3765 -9.7512 -78.1692 -11.7668C-78.9589 -13.7746 -79.0464 -15.4841 -78.5218 -16.9254C-77.9972 -18.3666 -76.8314 -19.62 -74.9359 -20.6504C-73.033 -21.6849 -70.4504 -22.4617 -67.2219 -22.9556C-60.7659 -23.9431 -51.937 -23.769 -41.3294 -22.4734C-20.1305 -19.8842 7.94866 -12.8449 37.8676 -1.95533C67.7865 8.93426 93.8211 21.5908 111.725 33.2337C120.683 39.0597 127.559 44.6014 131.869 49.5077C134.025 51.9613 135.504 54.2164 136.297 56.232C137.087 58.2398 137.174 59.9493 136.65 61.3906Z" stroke="#C0321C" stroke-width="2"/>
<path opacity="0.896552" d="M133.42 69.9121C132.772 71.3021 131.501 72.449 129.523 73.3104C127.537 74.1751 124.897 74.7239 121.638 74.9345C115.12 75.3556 106.34 74.4126 95.8856 72.1974C74.993 67.7704 47.6342 58.3107 18.7782 44.855C-10.0777 31.3992 -34.9102 16.5218 -51.7309 3.36273C-60.1478 -3.22184 -66.5139 -9.34168 -70.3807 -14.6051C-72.3144 -17.2372 -73.5912 -19.6126 -74.2052 -21.6897C-74.8169 -23.7586 -74.7551 -25.4693 -74.1069 -26.8593C-73.4587 -28.2494 -72.188 -29.3963 -70.2099 -30.2577C-68.2241 -31.1223 -65.5837 -31.6711 -62.3244 -31.8817C-55.8069 -32.3029 -47.0268 -31.3599 -36.5725 -29.1447C-15.6799 -24.7177 11.6789 -15.258 40.5349 -1.80224C69.3908 11.6535 94.2233 26.531 111.044 39.69C119.461 46.2746 125.827 52.3944 129.694 57.6578C131.627 60.2899 132.904 62.6654 133.518 64.7424C134.13 66.8114 134.068 68.522 133.42 69.9121Z" stroke="#C0321C" stroke-width="2"/>
<path opacity="0.931035" d="M129.401 78.065C128.634 79.3933 127.268 80.4251 125.223 81.1108C123.169 81.7991 120.491 82.1157 117.225 82.0414C110.696 81.8929 102.032 80.1883 91.81 77.0704C71.3828 70.8393 44.9526 59.0311 17.3792 43.1116C-10.1942 27.1921 -33.6355 10.207 -49.2454 -4.36802C-57.0563 -11.6611 -62.8648 -18.3125 -66.2582 -23.8929C-67.9551 -26.6835 -69.02 -29.1612 -69.4507 -31.2838C-69.8797 -33.3983 -69.6691 -35.097 -68.9022 -36.4253C-68.1353 -37.7535 -66.7695 -38.7854 -64.7239 -39.471C-62.6702 -40.1593 -59.992 -40.4759 -56.7268 -40.4017C-50.1974 -40.2531 -41.5329 -38.5485 -31.3114 -35.4306C-10.8841 -29.1995 15.546 -17.3914 43.1195 -1.47184C70.6929 14.4477 94.1342 31.4328 109.744 46.0078C117.555 53.3009 123.363 59.9523 126.757 65.5327C128.454 68.3233 129.519 70.801 129.949 72.9236C130.378 75.038 130.168 76.7367 129.401 78.065Z" stroke="#C0321C" stroke-width="2"/>
<path opacity="0.965517" d="M124.627 85.7828C123.747 87.0392 122.297 87.9481 120.199 88.4528C118.093 88.9595 115.398 89.0415 112.151 88.6829C105.66 87.9659 97.1766 85.5126 87.2658 81.5157C67.4593 73.528 42.1588 59.4612 16.0778 41.1991C-10.0032 22.937 -31.8749 3.97343 -46.1551 -11.9066C-53.3007 -19.8527 -58.5074 -26.985 -61.4014 -32.8399C-62.8487 -35.7678 -63.6936 -38.3289 -63.9377 -40.481C-64.1808 -42.6248 -63.8228 -44.2987 -62.9431 -45.555C-62.0634 -46.8114 -60.6129 -47.7203 -58.5152 -48.225C-56.4094 -48.7318 -53.7138 -48.8137 -50.4675 -48.4552C-43.9759 -47.7381 -35.4929 -45.2848 -25.5821 -41.2879C-5.77563 -33.3002 19.5248 -19.2334 45.6058 -0.971304C71.6869 17.2908 93.5586 36.2543 107.839 52.1344C114.984 60.0805 120.191 67.2128 123.085 73.0677C124.532 75.9956 125.377 78.5567 125.621 80.7088C125.864 82.8525 125.507 84.5264 124.627 85.7828Z" stroke="#C0321C" stroke-width="2"/>
<path d="M119.139 93.0001C118.153 94.1751 116.629 94.9541 114.496 95.2741C112.354 95.5953 109.661 95.442 106.458 94.8019C100.054 93.5218 91.8171 90.3385 82.2923 85.493C63.2574 75.8095 39.2792 59.5911 14.8891 39.1254C-9.50103 18.6597 -29.6368 -2.13795 -42.4786 -19.2021C-48.9044 -27.7408 -53.4697 -35.2998 -55.8424 -41.3846C-57.029 -44.4275 -57.6475 -47.0525 -57.7031 -49.2177C-57.7584 -51.3745 -57.2559 -53.0108 -56.27 -54.1857C-55.2842 -55.3607 -53.7599 -56.1396 -51.6263 -56.4597C-49.4844 -56.7809 -46.7919 -56.6276 -43.5892 -55.9875C-37.1847 -54.7074 -28.9478 -51.5241 -19.4231 -46.6786C-0.388174 -36.9951 23.59 -20.7767 47.9801 -0.310978C72.3702 20.1548 92.506 40.9524 105.348 58.0166C111.774 66.5552 116.339 74.1142 118.712 80.199C119.898 83.2419 120.517 85.8669 120.572 88.0321C120.628 90.1889 120.125 91.8252 119.139 93.0001Z" stroke="#C0321C" stroke-width="2"/>
</g>
</svg>
