<svg width="297" height="429" viewBox="0 0 297 429" fill="none" xmlns="http://www.w3.org/2000/svg">
<path opacity="0.0526316" d="M79.43 126.906C67.3224 110.909 39.5077 87.146 25.1097 120.063C7.1122 161.208 26.5752 243.56 16.1369 294.425C8.43266 331.968 -26.3109 397.54 -76.147 360.172" stroke="#606060"/>
<path opacity="0.105263" d="M99.306 162.634C87.3931 145.039 59.0906 116.434 41.1837 142.774C18.8 175.699 33.8712 255.522 18.9443 299.189C7.92722 331.418 -34.2857 382.368 -85.371 335.857" stroke="#606060"/>
<path opacity="0.157895" d="M118.186 199.342C106.599 180.341 78.1184 147.209 56.8987 166.684C30.3741 191.027 40.8882 267.446 21.6364 303.436C7.42716 329.999 -41.7926 365.769 -93.5673 310.624" stroke="#606060"/>
<path opacity="0.210526" d="M135.923 236.695C124.788 216.497 96.4417 179.199 72.1418 191.596C41.7668 207.091 47.6087 279.27 24.2429 307.188C6.99713 327.794 -48.6903 347.991 -100.587 284.817" stroke="#606060"/>
<path opacity="0.263158" d="M152.379 274.349C141.818 253.174 113.917 212.121 86.8027 217.303C52.9102 223.78 54.0159 290.927 26.792 310.468C6.69871 324.891 -54.8462 329.294 -106.297 258.783" stroke="#606060"/>
<path opacity="0.315789" d="M167.434 311.96C157.563 290.041 130.412 245.681 100.781 243.592C63.7426 240.98 60.0999 302.36 29.3163 313.31C6.59562 321.392 -60.1324 309.953 -110.573 232.877" stroke="#606060"/>
<path opacity="0.368421" d="M180.975 349.172C171.901 326.749 145.799 279.568 113.976 270.231C74.1966 258.559 65.8455 313.499 31.8394 315.738C6.74028 317.39 -64.4399 290.235 -113.318 207.438" stroke="#606060"/>
<path opacity="0.421053" d="M192.913 385.642C184.737 362.961 159.968 313.477 126.301 296.993C84.2178 276.389 71.2498 324.288 34.3937 317.79C7.19113 312.995 -67.6612 270.42 -114.441 182.811" stroke="#606060"/>
<path opacity="0.473684" d="M203.178 421.041C195.989 398.35 172.826 347.105 137.685 323.656C93.7574 294.345 76.3146 334.677 37.0123 319.515C8.00438 308.324 -69.7001 250.797 -113.869 159.335" stroke="#606060"/>
<path opacity="0.526316" d="M211.708 455.037C205.585 432.584 184.281 380.139 148.05 349.982C102.761 312.286 81.034 344.61 39.7163 320.949C9.22073 303.486 -70.4845 231.636 -111.558 137.323" stroke="#606060"/>
<path opacity="0.578947" d="M218.474 487.329C213.484 465.361 194.272 412.291 157.348 375.755C111.193 330.087 85.4204 354.048 42.5398 322.148C10.8908 298.604 -69.942 213.219 -107.471 117.088" stroke="#606060"/>
<path opacity="0.631579" d="M223.455 517.624C219.652 496.381 202.744 443.267 165.532 400.754C119.016 347.613 89.4803 362.949 45.5067 323.159C13.0509 293.792 -68.0238 195.808 -101.597 98.9114" stroke="#606060"/>
<path opacity="0.684211" d="M226.656 545.654C224.083 525.369 209.663 472.792 172.569 424.768C126.203 364.737 93.2277 371.28 48.6429 324.037C15.736 289.167 -64.6923 179.657 -93.9419 83.058" stroke="#606060"/>
<path opacity="0.736842" d="M228.098 571.174C226.782 552.069 215.008 500.607 178.441 447.597C132.732 381.333 96.6783 379.012 51.9707 324.832C18.9732 284.844 -59.9275 165.007 -84.5329 69.7634" stroke="#606060"/>
<path opacity="0.789474" d="M227.825 593.973C227.781 576.258 218.783 526.474 183.142 469.058C138.591 397.289 99.8537 386.128 55.5132 325.606C22.7865 280.936 -53.7222 152.086 -73.4138 59.2408" stroke="#606060"/>
<path opacity="0.842105" d="M225.893 613.861C227.122 597.729 220.997 550.169 186.673 488.977C143.768 412.488 102.772 392.61 59.2846 326.408C27.1875 277.546 -46.091 141.095 -60.6531 51.6661" stroke="#606060"/>
<path opacity="0.894737" d="M222.38 630.688C224.867 616.317 221.683 571.501 189.053 507.204C148.264 426.832 105.458 398.456 63.2997 327.3C32.1837 274.781 -37.0616 132.223 -46.3346 47.1901" stroke="#606060"/>
<path opacity="0.947368" d="M217.39 644.329C221.108 631.876 220.901 590.295 190.321 523.597C152.095 440.224 107.948 403.659 67.5812 328.328C37.7873 272.729 -26.6663 125.626 -30.5487 45.9204" stroke="#606060"/>
<path d="M211.029 654.703C215.939 644.304 218.71 606.414 190.515 538.046C155.271 452.585 110.267 408.233 72.1338 329.553C43.9883 271.481 -14.9673 121.445 -13.4165 47.9403" stroke="#606060"/>
</svg>
