<svg width="199" height="157" viewBox="0 0 199 157" fill="none" xmlns="http://www.w3.org/2000/svg">
<g opacity="0.15">
<path opacity="0.0344828" d="M221.499 37.26C224.614 38.3615 226.095 41.613 225.56 47.1186C225.031 52.5558 222.558 59.8854 218.338 68.6176C209.905 86.0688 194.587 108.933 174.372 133.058C154.156 157.183 132.913 177.951 114.931 192.025C105.933 199.067 97.7995 204.395 91.0574 207.634C84.2304 210.914 79.2232 211.871 76.109 210.77C72.9947 209.668 71.5137 206.417 72.0488 200.911C72.5772 195.474 75.0501 188.144 79.2701 179.412C87.7036 161.961 103.021 139.097 123.237 114.972C143.452 90.8466 164.695 70.0786 182.678 56.0048C191.676 48.9626 199.809 43.6349 206.551 40.3955C213.378 37.1152 218.385 36.1585 221.499 37.26Z" stroke="#C0321C" stroke-width="2"/>
<path opacity="0.0689655" d="M232.213 40.864C233.649 41.5037 234.642 42.6455 235.122 44.3546C235.605 46.0702 235.554 48.3079 234.956 51.0357C233.761 56.4904 230.414 63.7313 225.176 72.2747C214.706 89.3487 196.789 111.449 173.896 134.513C151.003 157.577 127.513 177.194 108.061 190.266C98.3271 196.807 89.6546 201.675 82.6089 204.523C79.0855 205.947 76.0249 206.844 73.4768 207.209C70.9385 207.573 68.9829 207.402 67.5471 206.762C66.1114 206.122 65.1189 204.98 64.6383 203.271C64.1558 201.556 64.206 199.318 64.804 196.59C65.9998 191.136 69.3461 183.895 74.5847 175.351C85.0541 158.277 102.971 136.177 125.864 113.113C148.757 90.0487 172.247 70.4318 191.7 57.3601C201.433 50.8193 210.106 45.9514 217.151 43.103C220.675 41.6786 223.736 40.7822 226.284 40.4167C228.822 40.0527 230.777 40.2243 232.213 40.864Z" stroke="#C0321C" stroke-width="2"/>
<path opacity="0.103448" d="M242.307 45.1043C243.614 45.824 244.448 47.021 244.709 48.7754C244.971 50.5351 244.644 52.7902 243.716 55.5066C241.86 60.9372 237.665 68.0337 231.447 76.3228C219.021 92.8886 198.64 114.055 173.243 135.883C147.846 157.71 122.288 176.025 101.513 187.994C91.1177 193.983 81.9712 198.353 74.6752 200.788C71.0256 202.005 67.8988 202.719 65.3456 202.928C62.8 203.137 60.9198 202.839 59.6128 202.12C58.3057 201.4 57.4721 200.203 57.2108 198.449C56.9488 196.689 57.2756 194.434 58.2039 191.717C60.0595 186.287 64.2549 179.19 70.4728 170.901C82.8994 154.335 103.28 133.168 128.677 111.341C154.074 89.5144 179.632 71.1989 200.407 59.2301C210.802 53.2412 219.949 48.8711 227.245 46.4364C230.894 45.2185 234.021 44.5053 236.574 44.2959C239.12 44.0871 241 44.3846 242.307 45.1043Z" stroke="#C0321C" stroke-width="2"/>
<path opacity="0.137931" d="M251.704 49.9461C252.874 50.7352 253.547 51.9769 253.587 53.7646C253.627 55.5555 253.025 57.811 251.773 60.4952C249.27 65.8598 244.257 72.7571 237.106 80.7282C222.816 96.6588 200.126 116.73 172.419 137.153C144.712 157.576 117.279 174.45 95.3398 185.223C84.3623 190.614 74.8114 194.452 67.3206 196.454C63.5726 197.455 60.403 197.979 57.8634 198.031C55.3282 198.083 53.5387 197.664 52.3683 196.875C51.1979 196.086 50.5246 194.844 50.485 193.056C50.4454 191.266 51.0472 189.01 52.2994 186.326C54.802 180.961 59.8154 174.064 66.9657 166.093C81.2557 150.162 103.946 130.091 131.653 109.668C159.36 89.2449 186.793 72.3712 208.732 61.5977C219.71 56.207 229.261 52.369 236.751 50.3675C240.499 49.3661 243.669 48.8418 246.209 48.7899C248.744 48.7382 250.533 49.157 251.704 49.9461Z" stroke="#C0321C" stroke-width="2"/>
<path opacity="0.172414" d="M260.341 55.3511C261.37 56.1987 261.883 57.475 261.699 59.2838C261.516 61.0926 260.643 63.3315 259.076 65.9626C255.945 71.2199 250.151 77.8646 242.122 85.4565C226.077 100.629 201.251 119.452 171.444 138.315C141.636 157.177 112.538 172.48 89.6021 181.975C78.126 186.726 68.2435 190.001 60.6152 191.553C56.7975 192.33 53.6092 192.661 51.1019 192.555C48.5947 192.449 46.9098 191.914 45.8812 191.066C44.8525 190.219 44.3399 188.943 44.5231 187.134C44.7062 185.325 45.5792 183.086 47.1465 180.455C50.278 175.198 56.0719 168.553 64.1003 160.961C80.1455 145.788 104.972 126.965 134.779 108.103C164.586 89.2402 193.685 73.9379 216.62 64.4428C228.097 59.6919 237.979 56.4161 245.607 54.8643C249.425 54.0876 252.613 53.7565 255.121 53.8628C257.628 53.969 259.313 54.5035 260.341 55.3511Z" stroke="#C0321C" stroke-width="2"/>
<path opacity="0.206897" d="M268.164 61.2765C269.049 62.1721 269.401 63.4741 268.996 65.2912C268.591 67.1045 267.453 69.3096 265.582 71.8671C261.844 76.9761 255.314 83.3167 246.468 90.4711C228.79 104.77 202.016 122.199 170.336 139.357C138.656 156.516 108.114 170.129 84.3562 178.272C72.4692 182.347 62.3307 185.035 54.6236 186.124C50.7657 186.669 47.583 186.804 45.1269 186.541C42.6656 186.276 41.0971 185.633 40.2126 184.737C39.3281 183.842 38.9753 182.54 39.381 180.723C39.786 178.909 40.9241 176.704 42.7949 174.147C46.5324 169.038 53.0631 162.697 61.9085 155.543C79.587 141.244 106.361 123.814 138.041 106.656C169.721 89.4982 200.263 75.8846 224.021 67.7413C235.908 63.6668 246.046 60.9792 253.753 59.8897C257.611 59.3444 260.794 59.2094 263.25 59.4731C265.711 59.7374 267.28 60.3809 268.164 61.2765Z" stroke="#C0321C" stroke-width="2"/>
<path opacity="0.241379" d="M275.117 67.6758C275.858 68.6101 276.052 69.9295 275.426 71.7415C274.802 73.5457 273.407 75.7 271.246 78.1637C266.931 83.0847 259.713 89.0721 250.118 95.734C230.941 109.049 202.424 124.952 169.112 140.274C135.801 155.597 104.048 167.417 79.6499 174.146C67.4427 177.512 57.1261 179.59 49.3998 180.208C45.5316 180.518 42.3791 180.455 39.9926 180.036C37.5956 179.614 36.1533 178.869 35.4127 177.935C34.6721 177 34.4778 175.681 35.1044 173.869C35.7283 172.065 37.1235 169.91 39.284 167.447C43.5993 162.526 50.817 156.538 60.4121 149.876C79.5892 136.562 108.106 120.659 141.418 105.336C174.729 90.014 206.482 78.1936 230.88 71.4649C243.087 68.0983 253.404 66.0203 261.13 65.4023C264.999 65.093 268.151 65.1555 270.538 65.575C272.934 65.9962 274.377 66.7415 275.117 67.6758Z" stroke="#C0321C" stroke-width="2"/>
<path opacity="0.275862" d="M281.156 74.4991C281.755 75.4647 281.792 76.7943 280.948 78.5873C280.11 80.3685 278.468 82.4552 276.034 84.8059C271.174 89.5004 263.324 95.0881 253.053 101.206C232.523 113.435 202.48 127.689 167.791 141.059C133.102 154.429 100.38 164.365 75.5288 169.627C63.0947 172.26 52.6792 173.712 44.9936 173.853C41.1453 173.923 38.0475 173.663 35.749 173.091C33.4353 172.515 32.1264 171.676 31.5273 170.71C30.9282 169.745 30.8914 168.415 31.7355 166.622C32.5739 164.841 34.2157 162.754 36.6495 160.404C41.5099 155.709 49.3596 150.121 59.6311 144.003C80.1606 131.774 110.204 117.52 144.893 104.151C179.581 90.7809 212.303 80.8444 237.155 75.5824C249.589 72.9496 260.005 71.4976 267.69 71.3566C271.538 71.2861 274.636 71.546 276.935 72.1182C279.248 72.6942 280.557 73.5334 281.156 74.4991Z" stroke="#C0321C" stroke-width="2"/>
<path opacity="0.310345" d="M286.24 81.69C286.701 82.6822 286.581 84.0155 285.525 85.7748C284.478 87.5193 282.602 89.5219 279.914 91.7409C274.545 96.1723 266.124 101.317 255.254 106.845C233.529 117.893 202.19 130.39 166.388 141.705C130.586 153.019 97.145 160.996 72.0297 164.751C59.4638 166.629 49.0296 167.444 41.4445 167.106C37.6462 166.937 34.6274 166.481 32.4348 165.761C30.2234 165.034 29.0532 164.108 28.592 163.116C28.1308 162.124 28.2511 160.791 29.3069 159.031C30.3537 157.287 32.2297 155.284 34.918 153.065C40.2864 148.634 48.7078 143.489 59.5773 137.961C81.3023 126.913 112.642 114.416 148.444 103.101C184.246 91.7867 217.687 83.8102 242.802 80.0555C255.368 78.1769 265.802 77.3626 273.387 77.7001C277.186 77.8692 280.204 78.3249 282.397 79.0455C284.608 79.7724 285.779 80.6978 286.24 81.69Z" stroke="#C0321C" stroke-width="2"/>
<path opacity="0.344828" d="M290.344 89.1925C290.671 90.2089 290.393 91.54 289.134 93.2507C287.887 94.9447 285.791 96.8474 282.869 98.9174C277.034 103.051 268.106 107.713 256.721 112.608C233.967 122.392 201.569 133.035 164.927 142.208C128.285 151.382 94.3809 157.337 69.194 159.555C56.5925 160.665 46.2201 160.835 38.7946 160.022C35.0759 159.614 32.16 158.966 30.0905 158.102C28.0006 157.23 26.9722 156.226 26.6454 155.21C26.3186 154.193 26.5962 152.862 27.8557 151.151C29.1028 149.457 31.1986 147.555 34.1207 145.485C39.9556 141.351 48.8838 136.689 60.2684 131.794C83.0228 122.011 115.42 111.367 152.062 102.194C188.704 93.0204 222.609 87.0652 247.795 84.8468C260.397 83.7368 270.769 83.5668 278.195 84.3806C281.914 84.7881 284.829 85.4361 286.899 86.2998C288.989 87.172 290.017 88.176 290.344 89.1925Z" stroke="#C0321C" stroke-width="2"/>
<path opacity="0.37931" d="M293.439 96.9484C293.634 97.989 293.198 99.3118 291.745 100.959C290.307 102.589 288.008 104.377 284.875 106.282C278.619 110.085 269.253 114.228 257.44 118.453C233.83 126.897 200.623 135.605 163.42 142.567C126.218 149.529 92.1084 153.418 67.0428 154.083C54.502 154.415 44.2714 153.94 37.0632 152.656C33.4533 152.013 30.6633 151.178 28.7333 150.178C26.7834 149.167 25.8985 148.092 25.7038 147.051C25.5091 146.011 25.9451 144.688 27.3978 143.041C28.8356 141.41 31.1347 139.623 34.2678 137.718C40.524 133.915 49.8903 129.772 61.7028 125.547C85.3127 117.103 118.52 108.394 155.723 101.432C192.925 94.4703 227.034 90.5819 252.1 89.9168C264.641 89.5841 274.871 90.0598 282.08 91.3436C285.69 91.9866 288.48 92.8219 290.41 93.8219C292.36 94.8322 293.244 95.9078 293.439 96.9484Z" stroke="#C0321C" stroke-width="2"/>
<path opacity="0.413793" d="M295.511 104.895C295.574 105.961 294.978 107.269 293.345 108.838C291.728 110.392 289.243 112.05 285.924 113.775C279.295 117.219 269.563 120.811 257.413 124.333C233.128 131.372 199.364 138.08 161.885 142.778C124.405 147.475 90.3516 149.267 65.599 148.374C53.2148 147.927 43.205 146.809 36.2702 145.065C32.7973 144.191 30.1553 143.175 28.38 142.047C26.5871 140.907 25.847 139.767 25.7841 138.701C25.7212 137.635 26.317 136.327 27.9501 134.758C29.5672 133.205 32.0515 131.546 35.3711 129.822C42 126.378 51.732 122.785 63.8821 119.264C88.1667 112.224 121.93 105.516 159.41 100.819C196.89 96.1213 230.943 94.3294 255.696 95.2229C268.08 95.6699 278.09 96.7878 285.025 98.5317C288.497 99.405 291.14 100.421 292.915 101.549C294.708 102.689 295.448 103.83 295.511 104.895Z" stroke="#C0321C" stroke-width="2"/>
<path opacity="0.448276" d="M296.554 112.971C296.483 114.063 295.726 115.349 293.927 116.826C292.144 118.291 289.494 119.807 286.014 121.338C279.064 124.396 269.042 127.41 256.647 130.202C231.873 135.783 197.811 140.439 160.34 142.836C122.87 145.234 89.1317 144.915 64.8816 142.47C52.7487 141.247 43.0368 139.496 36.4293 137.306C33.1205 136.209 30.6472 135.02 29.0405 133.772C27.4199 132.514 26.8257 131.314 26.8969 130.222C26.9681 129.13 27.7244 127.844 29.5234 126.367C31.307 124.902 33.9567 123.386 37.4369 121.855C44.3867 118.797 54.4093 115.783 66.8041 112.991C91.5776 107.41 125.64 102.754 163.111 100.357C200.581 97.9596 234.319 98.2779 258.569 100.723C270.702 101.946 280.414 103.697 287.022 105.888C290.33 106.984 292.804 108.173 294.41 109.421C296.031 110.68 296.625 111.879 296.554 112.971Z" stroke="#C0321C" stroke-width="2"/>
<path opacity="0.482759" d="M296.564 121.112C296.355 122.229 295.438 123.485 293.489 124.858C291.553 126.223 288.759 127.585 285.146 128.911C277.929 131.559 267.693 133.972 255.149 136.013C230.076 140.094 195.975 142.662 158.799 142.741C121.623 142.82 88.4586 140.394 64.8964 136.416C53.1075 134.426 43.7685 132.055 37.5393 129.436C34.4203 128.124 32.135 126.773 30.7092 125.415C29.2739 124.049 28.8274 122.796 29.0368 121.679C29.2462 120.562 30.1629 119.306 32.1119 117.933C34.0479 116.568 36.8421 115.205 40.4555 113.88C47.672 111.232 57.9077 108.819 70.4524 106.778C95.5251 102.697 129.626 100.129 166.802 100.05C203.978 99.971 237.143 102.397 260.705 106.374C272.494 108.364 281.833 110.736 288.062 113.355C291.181 114.666 293.466 116.018 294.892 117.376C296.327 118.742 296.774 119.995 296.564 121.112Z" stroke="#C0321C" stroke-width="2"/>
<path opacity="0.517241" d="M295.556 129.253C295.203 130.392 294.128 131.609 292.046 132.868C289.972 134.122 287.056 135.32 283.337 136.431C275.911 138.648 265.541 140.442 252.942 141.717C227.762 144.266 193.883 144.728 157.285 142.488C120.687 140.248 88.3494 135.733 65.6553 130.254C54.3005 127.513 45.4061 124.54 39.6033 121.513C36.6981 119.997 34.6184 118.493 33.3843 117.037C32.1448 115.574 31.8488 114.273 32.2015 113.135C32.5541 111.996 33.6294 110.779 35.7118 109.52C37.7851 108.266 40.7016 107.067 44.42 105.957C51.8469 103.739 62.2168 101.946 74.8154 100.671C99.9954 98.1216 133.874 97.6599 170.472 99.8999C207.07 102.14 239.408 106.654 262.102 112.134C273.457 114.875 282.351 117.847 288.154 120.875C291.059 122.391 293.139 123.895 294.373 125.351C295.613 126.814 295.909 128.114 295.556 129.253Z" stroke="#C0321C" stroke-width="2"/>
<path opacity="0.551724" d="M293.54 137.331C293.039 138.486 291.809 139.653 289.61 140.79C287.416 141.924 284.4 142.949 280.605 143.835C273.026 145.607 262.602 146.767 250.046 147.267C224.951 148.265 191.553 146.617 155.812 142.076C120.071 137.535 88.8068 130.966 67.1541 124.028C56.3202 120.556 47.9386 117.006 42.6066 113.594C39.9376 111.886 38.079 110.242 37.0458 108.698C36.0105 107.15 35.8686 105.809 36.3694 104.654C36.8702 103.499 38.0998 102.332 40.299 101.196C42.4936 100.062 45.5097 99.0367 49.3038 98.1501C56.8833 96.3789 67.3075 95.2184 79.8635 94.7187C104.958 93.7201 138.356 95.3681 174.097 99.9094C209.838 104.451 241.102 111.019 262.755 117.958C273.589 121.429 281.971 124.979 287.303 128.391C289.972 130.099 291.83 131.743 292.863 133.288C293.899 134.835 294.041 136.177 293.54 137.331Z" stroke="#C0321C" stroke-width="2"/>
<path opacity="0.586207" d="M290.545 145.281C289.892 146.444 288.514 147.551 286.215 148.557C283.916 149.563 280.824 150.407 276.984 151.063C269.31 152.375 258.912 152.894 246.495 152.615C221.677 152.056 189.014 148.311 154.403 141.504C119.793 134.696 89.8397 126.124 69.3936 117.78C59.1632 113.605 51.3586 109.505 46.5379 105.736C44.1253 103.85 42.5018 102.078 41.6769 100.458C40.8521 98.8378 40.8685 97.4624 41.521 96.3002C42.1735 95.138 43.5512 94.0304 45.8503 93.0247C48.1495 92.019 51.2417 91.1748 55.082 90.5184C62.7553 89.2068 73.1535 88.6873 85.571 88.9669C110.388 89.5257 143.051 93.2703 177.662 100.078C212.273 106.886 242.226 115.457 262.672 123.801C272.902 127.976 280.707 132.076 285.528 135.845C287.94 137.732 289.564 139.503 290.389 141.124C291.213 142.744 291.197 144.119 290.545 145.281Z" stroke="#C0321C" stroke-width="2"/>
<path opacity="0.62069" d="M286.596 153.042C285.79 154.201 284.273 155.238 281.891 156.107C279.505 156.977 276.36 157.634 272.503 158.056C264.796 158.899 254.503 158.774 242.319 157.717C217.969 155.606 186.291 149.794 153.073 140.773C119.856 131.751 91.4434 121.242 72.3597 111.557C62.8109 106.711 55.6427 102.094 51.3695 97.9969C49.2315 95.9471 47.8547 94.0618 47.2441 92.3778C46.6346 90.6967 46.8133 89.2957 47.6191 88.1367C48.425 86.9778 49.942 85.9402 52.3243 85.0717C54.7108 84.2017 57.8555 83.5444 61.712 83.1227C69.4197 82.28 79.7121 82.4046 91.8961 83.461C116.246 85.5723 147.924 91.3841 181.142 100.406C214.36 109.427 242.772 119.936 261.856 129.621C271.404 134.467 278.573 139.085 282.846 143.182C284.984 145.231 286.361 147.117 286.971 148.801C287.581 150.482 287.402 151.883 286.596 153.042Z" stroke="#C0321C" stroke-width="2"/>
<path opacity="0.655172" d="M281.739 160.551C280.781 161.695 279.136 162.652 276.687 163.378C274.231 164.106 271.058 164.571 267.215 164.756C259.532 165.124 249.424 164.357 237.567 162.532C213.87 158.886 183.418 151.052 151.847 139.886C120.276 128.719 93.6199 116.354 76.0439 105.403C67.2493 99.9235 60.7717 94.8243 57.0779 90.4322C55.2302 88.2352 54.11 86.251 53.718 84.5156C53.3272 82.7854 53.6716 81.368 54.6299 80.2243C55.5882 79.0807 57.2337 78.1234 59.6825 77.3976C62.1386 76.6696 65.3118 76.2038 69.1548 76.0196C76.8375 75.6513 86.9453 76.4182 98.8026 78.2429C122.5 81.8894 152.952 89.7233 184.523 100.89C216.094 112.056 242.749 124.421 260.325 135.372C269.12 140.852 275.598 145.951 279.291 150.343C281.139 152.54 282.259 154.524 282.651 156.26C283.042 157.99 282.698 159.407 281.739 160.551Z" stroke="#C0321C" stroke-width="2"/>
<path opacity="0.689655" d="M276.018 167.75C274.91 168.866 273.149 169.733 270.651 170.311C268.143 170.892 264.966 171.163 261.166 171.109C253.567 171.001 243.721 169.599 232.281 167.02C209.418 161.867 180.423 152.072 150.739 138.847C121.055 125.621 96.3593 111.496 80.4243 99.3631C72.4508 93.2922 66.7126 87.7513 63.6252 83.0981C62.0813 80.7712 61.2254 78.703 61.0548 76.9291C60.8849 75.1618 61.3973 73.7384 62.5046 72.6228C63.6119 71.5072 65.3731 70.6401 67.8713 70.0616C70.379 69.4809 73.5567 69.2099 77.3568 69.2638C84.9557 69.3717 94.8016 70.7742 106.242 73.3526C129.105 78.5055 158.099 88.3008 187.783 101.526C217.467 114.751 242.163 128.877 258.098 141.01C266.072 147.081 271.81 152.621 274.897 157.275C276.441 159.602 277.297 161.67 277.468 163.444C277.637 165.211 277.125 166.634 276.018 167.75Z" stroke="#C0321C" stroke-width="2"/>
<path opacity="0.724138" d="M269.487 174.581C266.982 176.734 261.968 177.653 254.417 177.064C246.959 176.481 237.45 174.455 226.514 171.143C204.66 164.524 177.344 152.844 149.773 137.661C122.201 122.478 99.6526 106.701 85.4793 93.4799C78.3873 86.8646 73.4312 80.9252 70.9725 76.0471C68.4827 71.1074 68.6878 67.5404 71.1929 65.3874C73.6981 63.2343 78.7124 62.3156 86.2636 62.9052C93.7209 63.4874 103.23 65.5136 114.166 68.8255C136.021 75.4443 163.336 87.1252 190.908 102.308C218.479 117.49 241.028 133.268 255.201 146.489C262.293 153.104 267.249 159.044 269.708 163.922C272.197 168.861 271.992 172.428 269.487 174.581Z" stroke="#C0321C" stroke-width="2"/>
<path opacity="0.758621" d="M262.201 180.993C259.431 183.035 254.356 183.636 247.024 182.574C239.765 181.523 230.664 178.889 220.316 174.87C199.635 166.837 174.206 153.361 148.957 136.337C123.708 119.314 103.477 102.005 91.1726 87.7983C85.0155 80.6896 80.8782 74.3978 79.0653 69.3322C77.2343 64.2159 77.8598 60.6147 80.6292 58.5733C83.3987 56.532 88.4742 55.931 95.8062 56.9926C103.065 58.0437 112.166 60.6772 122.514 64.6967C143.195 72.7296 168.624 86.206 193.873 103.23C219.122 120.253 239.353 137.562 251.658 151.768C257.815 158.877 261.952 165.169 263.765 170.234C265.596 175.351 264.97 178.952 262.201 180.993Z" stroke="#C0321C" stroke-width="2"/>
<path opacity="0.793103" d="M254.228 186.934C251.214 188.841 246.121 189.118 239.06 187.595C232.053 186.084 223.43 182.865 213.748 178.169C194.398 168.784 171.047 153.616 148.312 134.882C125.577 116.148 107.818 97.4417 97.4734 82.3583C92.2975 74.811 89.009 68.2152 87.8543 63.0009C86.6905 57.7459 87.7388 54.1363 90.7525 52.2291C93.7663 50.3219 98.8593 50.0452 105.921 51.568C112.928 53.0789 121.551 56.2986 131.233 60.9943C150.583 70.3789 173.933 85.547 196.669 104.281C219.404 123.015 237.163 141.722 247.507 156.805C252.683 164.352 255.972 170.948 257.126 176.162C258.29 181.417 257.242 185.027 254.228 186.934Z" stroke="#C0321C" stroke-width="2"/>
<path opacity="0.827586" d="M245.643 192.359C242.409 194.111 237.342 194.06 230.6 192.09C223.898 190.132 215.816 186.351 206.873 181.015C189 170.352 167.905 153.608 147.856 133.307C127.806 113.006 112.652 93.0448 104.346 77.2C100.19 69.2721 97.7732 62.4228 97.284 57.0994C96.7917 51.744 98.2615 48.1531 101.496 46.4012C104.73 44.6494 109.797 44.7003 116.539 46.6705C123.241 48.629 131.323 52.4097 140.266 57.7453C158.139 68.4088 179.234 85.1523 199.283 105.453C219.333 125.755 234.487 145.716 242.793 161.561C246.95 169.489 249.366 176.338 249.855 181.661C250.347 187.017 248.878 190.608 245.643 192.359Z" stroke="#C0321C" stroke-width="2"/>
<path opacity="0.862069" d="M236.515 197.227C233.087 198.804 228.091 198.425 221.714 196.024C215.366 193.634 207.886 189.321 199.749 183.387C183.488 171.526 164.807 153.336 147.595 131.622C130.383 109.909 117.948 88.8454 111.74 72.3604C108.634 64.1122 107.107 57.0615 107.285 51.669C107.465 46.2517 109.351 42.7077 112.779 41.1308C116.208 39.5538 121.203 39.9324 127.58 42.3338C133.928 44.7242 141.408 49.0367 149.545 54.971C165.806 66.8315 184.487 85.0222 201.699 106.736C218.911 128.449 231.346 149.512 237.554 165.998C240.66 174.246 242.187 181.296 242.009 186.689C241.829 192.106 239.943 195.65 236.515 197.227Z" stroke="#C0321C" stroke-width="2"/>
<path opacity="0.896552" d="M226.922 201.501C223.33 202.885 218.449 202.182 212.481 199.368C206.534 196.565 199.71 191.753 192.441 185.266C177.913 172.299 161.786 152.8 147.541 129.839C133.296 106.879 123.672 84.8737 119.609 67.8734C117.576 59.3676 116.948 52.1687 117.792 46.7473C118.639 41.3068 120.932 37.8386 124.524 36.4541C128.117 35.0696 132.998 35.7725 138.966 38.5864C144.913 41.3903 151.736 46.2015 159.005 52.6892C173.534 65.6561 189.661 85.1554 203.905 108.116C218.15 131.076 227.774 153.081 231.838 170.082C233.871 178.587 234.499 185.786 233.655 191.208C232.808 196.648 230.515 200.116 226.922 201.501Z" stroke="#C0321C" stroke-width="2"/>
<path opacity="0.931035" d="M216.946 205.148C213.222 206.325 208.498 205.304 202.98 202.099C197.477 198.903 191.361 193.63 185.013 186.638C172.325 172.663 158.874 152.003 147.703 127.97C136.532 103.938 129.791 81.157 127.901 63.7698C126.955 55.0707 127.23 47.7775 128.732 42.3675C130.239 36.9423 132.926 33.5791 136.65 32.4022C140.374 31.2253 145.099 32.2461 150.617 35.4512C156.119 38.6474 162.236 43.9208 168.583 50.9127C181.271 64.8876 194.722 85.5476 205.893 109.58C217.064 133.613 223.805 156.394 225.695 173.781C226.641 182.48 226.366 189.773 224.864 195.183C223.357 200.608 220.67 203.971 216.946 205.148Z" stroke="#C0321C" stroke-width="2"/>
<path opacity="0.965517" d="M206.673 208.145C202.851 209.102 198.324 207.773 193.294 204.2C188.276 200.635 182.912 194.939 177.533 187.496C166.78 172.618 156.105 150.954 148.092 126.03C140.079 101.107 136.27 77.7235 136.566 60.08C136.714 51.2529 137.889 43.9196 140.038 38.561C142.192 33.1896 145.254 29.9607 149.076 29.004C152.897 28.0472 157.425 29.3761 162.455 32.949C167.473 36.5133 172.837 42.2096 178.216 49.6529C188.968 64.5304 199.644 86.1951 207.657 111.118C215.67 136.042 219.479 159.425 219.183 177.069C219.035 185.896 217.86 193.229 215.711 198.588C213.557 203.959 210.494 207.188 206.673 208.145Z" stroke="#C0321C" stroke-width="2"/>
<path d="M196.185 210.466C192.302 211.193 188.009 209.569 183.503 205.654C179.007 201.748 174.434 195.671 170.063 187.832C161.327 172.164 153.507 149.657 148.712 124.032C143.916 98.4065 143.068 74.5957 145.548 56.8281C146.788 47.939 148.854 40.6199 151.634 35.3524C154.419 30.0729 157.834 27.0067 161.718 26.2799C165.601 25.5532 169.894 27.1771 174.4 31.092C178.896 34.998 183.469 41.0747 187.84 48.9138C196.576 64.5824 204.396 87.0886 209.191 112.714C213.987 138.339 214.835 162.15 212.355 179.918C211.115 188.807 209.049 196.126 206.269 201.394C203.484 206.673 200.069 209.739 196.185 210.466Z" stroke="#C0321C" stroke-width="2"/>
</g>
</svg>
